<svg width="24" height="24" viewBox="0 0 24 24" fill="none" xmlns="http://www.w3.org/2000/svg">
<mask id="mask0_941_2350" style="mask-type:luminance" maskUnits="userSpaceOnUse" x="0" y="0" width="24" height="24">
<path d="M0 0H24V24H0V0Z" fill="white"/>
</mask>
<g mask="url(#mask0_941_2350)">
<mask id="mask1_941_2350" style="mask-type:luminance" maskUnits="userSpaceOnUse" x="0" y="0" width="24" height="24">
<path d="M0 0H24V24H0V0Z" fill="white"/>
</mask>
<g mask="url(#mask1_941_2350)">
<mask id="mask2_941_2350" style="mask-type:luminance" maskUnits="userSpaceOnUse" x="0" y="0" width="24" height="24">
<path d="M0 0H24V24H0V0Z" fill="white"/>
</mask>
<g mask="url(#mask2_941_2350)">
<mask id="mask3_941_2350" style="mask-type:luminance" maskUnits="userSpaceOnUse" x="0" y="0" width="24" height="24">
<path d="M0 0H24V24H0V0Z" fill="white"/>
</mask>
<g mask="url(#mask3_941_2350)">
<mask id="mask4_941_2350" style="mask-type:luminance" maskUnits="userSpaceOnUse" x="0" y="0" width="24" height="24">
<path d="M0 0H24V24H0V0Z" fill="white"/>
</mask>
<g mask="url(#mask4_941_2350)">
<path d="M6.29344 13.7983C5.65272 13.4699 5.46787 13.4727 5.16951 14.1279C5.05179 14.3864 4.59589 14.1183 4.38921 14.3131C4.07233 14.6118 3.90442 15.0316 3.49674 15.1846C3.0187 15.3639 2.5135 15.7041 2.71158 16.1747C2.80078 16.3867 1.9107 16.6639 1.86242 16.8887C1.80078 17.1757 2.05134 17.5757 1.95638 17.8534C1.87066 18.1041 1.40577 18.8993 1.65637 18.9855C1.90697 19.0716 2.80326 18.5819 3.05486 18.4988C3.3065 18.4157 3.84291 18.7207 4.10755 18.7073C4.39883 18.6926 4.76345 18.1025 5.05341 18.1337C5.75121 18.2091 6.50914 18.0515 6.99322 17.5434C7.4773 17.0352 7.428 16.6415 7.66548 15.9811" fill="#FDEADD"/>
<path d="M6.35002 14.4738C5.81981 14.2137 5.06926 14.4574 4.84998 15.0177C4.71598 15.36 4.71502 15.8257 4.37766 15.9716C4.1489 16.0705 3.87346 15.9548 3.63938 16.0403C3.32774 16.1542 3.24362 16.5967 3.41222 16.8825C3.58082 17.1682 3.91506 17.3144 4.2405 17.3791C5.3689 17.6034 6.61066 16.9688 7.08994 15.9229" fill="#F49743"/>
</g>
</g>
</g>
</g>
<mask id="mask5_941_2350" style="mask-type:luminance" maskUnits="userSpaceOnUse" x="0" y="0" width="24" height="24">
<path d="M0 0H24V24H0V0Z" fill="white"/>
</mask>
<g mask="url(#mask5_941_2350)">
<mask id="mask6_941_2350" style="mask-type:luminance" maskUnits="userSpaceOnUse" x="6" y="0" width="24" height="25">
<path d="M6 0.399902H30V24.3999H6V0.399902Z" fill="white"/>
</mask>
<g mask="url(#mask6_941_2350)">
<g opacity="0.158667">
<path d="M14.0151 15.6438L14.0073 15.6389L13.9988 15.6425L14.0011 15.6335L13.995 15.6266L14.0042 15.626L14.009 15.618L14.0124 15.6266L14.0214 15.6287L14.0143 15.6346L14.0151 15.6438Z" fill="#025F92"/>
</g>
</g>
<mask id="mask7_941_2350" style="mask-type:luminance" maskUnits="userSpaceOnUse" x="3" y="-4" width="25" height="25">
<path d="M3.59985 -3.6001H27.5999V20.3999H3.59985V-3.6001Z" fill="white"/>
</mask>
<g mask="url(#mask7_941_2350)">
<path d="M19.2681 5.38787L19.3877 5.50464L19.5516 5.47235L19.4775 5.62211L19.5589 5.76806L19.3935 5.74385L19.2799 5.86635L19.2518 5.70162L19.1002 5.63138L19.2482 5.55378L19.2681 5.38787Z" fill="#025F92"/>
</g>
<mask id="mask8_941_2350" style="mask-type:luminance" maskUnits="userSpaceOnUse" x="-1" y="10" width="25" height="24">
<path d="M-0.400146 10H23.5999V34H-0.400146V10Z" fill="white"/>
</mask>
<g mask="url(#mask8_941_2350)">
<path d="M10.2446 22.8547L10.3991 22.9119L10.5338 22.8171L10.5271 22.9816L10.6589 23.0804L10.5003 23.1249L10.447 23.2808L10.3557 23.1437L10.191 23.1413L10.2932 23.0121L10.2446 22.8547Z" fill="#025F92"/>
</g>
</g>
<path d="M6.83929 12.537L5.60133 12.5054C4.71849 14.6411 5.34993 16.538 7.88169 17.0549L8.72281 15.3343L6.83929 12.537Z" fill="#4C535E"/>
<path d="M6.87169 12.2266C6.26201 12.8565 6.15117 13.8548 6.48597 14.7064C6.85353 15.6412 7.75265 16.4007 8.99073 16.3328L16.3849 12.5673C17.6759 11.9098 18.1276 10.2883 17.3624 9.05808C16.6646 7.93628 15.2083 7.56116 14.0554 8.20636L6.87169 12.2266Z" fill="#70A0AF"/>
<path d="M6.87171 12.2269C6.87171 12.2269 6.89423 12.2133 6.93907 12.1877C6.98423 12.1622 7.05091 12.1244 7.13827 12.0749C7.31403 11.9759 7.57271 11.8302 7.90575 11.6427C8.57327 11.2681 9.53863 10.7262 10.7314 10.0568C11.3282 9.72227 11.9819 9.35587 12.6836 8.96251C13.0345 8.76591 13.3975 8.56255 13.7713 8.35311C13.8648 8.30079 13.959 8.24811 14.0538 8.19507C14.1027 8.17075 14.1517 8.14635 14.2009 8.12187C14.2256 8.10983 14.25 8.0969 14.275 8.08551L14.3525 8.05603C14.4043 8.03687 14.4557 8.01543 14.5085 7.99795C14.5622 7.98327 14.6162 7.96854 14.6702 7.95375C14.7238 7.93671 14.7798 7.92963 14.8354 7.91966L14.919 7.90526L14.9608 7.89827L15.0032 7.89507C15.0598 7.89078 15.1166 7.88651 15.1736 7.88219C15.2307 7.87975 15.288 7.88339 15.3455 7.88367C15.3742 7.88447 15.403 7.88419 15.4318 7.88595L15.5178 7.89563L15.6042 7.90539C15.633 7.90847 15.662 7.91139 15.6902 7.91839C15.7472 7.93022 15.8043 7.94215 15.8616 7.95407C15.9185 7.96743 15.9738 7.98743 16.0302 8.00383C16.0582 8.01291 16.0869 8.02019 16.1144 8.03078L16.1962 8.06455L16.2784 8.09843L16.3195 8.11547L16.359 8.13623C16.7862 8.34523 17.1592 8.68675 17.4092 9.11391C17.66 9.53983 17.7826 10.0519 17.7399 10.5616C17.6996 11.0706 17.497 11.5745 17.1563 11.974C17.0142 12.143 16.8484 12.2903 16.668 12.4134C16.4884 12.5393 16.2893 12.6279 16.0994 12.727C15.7164 12.922 15.338 13.1146 14.9651 13.3045C14.2192 13.6841 13.4949 14.0528 12.7981 14.4075C11.4044 15.1163 10.1209 15.7693 8.99519 16.3419L8.99327 16.3429L8.99127 16.3429C8.76711 16.3513 8.54751 16.3383 8.33711 16.2987C8.12767 16.2549 7.92919 16.1881 7.74543 16.1019C7.56363 16.0114 7.39823 15.9026 7.24927 15.7823C7.10363 15.658 6.97427 15.5242 6.86327 15.3831C6.83523 15.3481 6.81087 15.3108 6.78479 15.2752C6.75883 15.2395 6.73359 15.2039 6.71199 15.1662C6.68939 15.1293 6.66703 15.0927 6.64487 15.0563C6.62515 15.0186 6.60567 14.9812 6.58635 14.9443C6.56663 14.9074 6.54803 14.8705 6.53271 14.8324C6.51647 14.7948 6.50035 14.7576 6.48443 14.7207C6.46943 14.6835 6.45723 14.6456 6.44367 14.6086C6.43003 14.5717 6.41743 14.5348 6.40771 14.4975C6.31991 14.2018 6.28747 13.9178 6.29667 13.6639C6.30435 13.4097 6.34931 13.1858 6.41031 12.9995C6.47091 12.8128 6.54643 12.663 6.61911 12.5499C6.63727 12.5216 6.65307 12.4941 6.67019 12.47C6.68795 12.4463 6.70455 12.4242 6.71991 12.4037C6.73531 12.3833 6.74943 12.3645 6.76239 12.3474C6.77671 12.3314 6.78967 12.317 6.80127 12.3041C6.84755 12.2527 6.87171 12.2269 6.87171 12.2269C6.87171 12.2269 6.84879 12.2543 6.80339 12.3061C6.79203 12.3191 6.77931 12.3337 6.76523 12.3497C6.75251 12.367 6.73855 12.3859 6.72343 12.4064C6.70827 12.4269 6.69191 12.4491 6.67439 12.4729C6.65751 12.4971 6.64195 12.5246 6.62403 12.553C6.55239 12.6662 6.47799 12.816 6.41843 13.0022C6.35851 13.188 6.31463 13.4111 6.30775 13.6642C6.29943 13.9171 6.33259 14.1996 6.42071 14.4936C6.43043 14.5307 6.44311 14.5673 6.45675 14.6041C6.47031 14.6408 6.48255 14.6785 6.49755 14.7155C6.51351 14.7521 6.52959 14.7891 6.54587 14.8265C6.56119 14.8643 6.57975 14.901 6.59943 14.9376C6.61875 14.9744 6.63823 15.0115 6.65791 15.0489C6.68003 15.085 6.70235 15.1213 6.72491 15.1581C6.74643 15.1955 6.77159 15.2309 6.79751 15.2663C6.82347 15.3015 6.84779 15.3386 6.87575 15.3733C6.98635 15.5134 7.11515 15.6461 7.26003 15.7693C7.40823 15.8885 7.57263 15.9963 7.75319 16.0859C7.93579 16.1711 8.13283 16.2371 8.34071 16.2803C8.54959 16.3192 8.76763 16.3319 8.99019 16.3233L8.98627 16.3244C10.1115 15.7507 11.3944 15.0966 12.7875 14.3864C13.4841 14.0315 14.2082 13.6625 14.954 13.2825C15.3268 13.0926 15.7051 12.8999 16.088 12.7048C16.2786 12.6054 16.4768 12.5171 16.654 12.3927C16.8325 12.2709 16.9965 12.1251 17.1373 11.9578C17.4744 11.5623 17.6752 11.0635 17.7151 10.5596C17.7575 10.055 17.6362 9.54811 17.388 9.12623C17.1406 8.70315 16.7715 8.36487 16.3484 8.15767L16.3094 8.13707L16.2687 8.12019L16.1874 8.08659L16.1062 8.05307C16.0791 8.04255 16.0506 8.03535 16.0229 8.02634C15.967 8.01007 15.9123 7.99019 15.8559 7.97695C15.7992 7.96511 15.7426 7.95331 15.6862 7.94151C15.6582 7.93455 15.6295 7.93163 15.6009 7.92858L15.5154 7.91887L15.4302 7.90919C15.4017 7.90742 15.3732 7.90775 15.3447 7.9069C15.2878 7.90659 15.231 7.90291 15.1745 7.90531C15.118 7.90955 15.0617 7.91375 15.0056 7.91795L14.9636 7.92107L14.9221 7.92802L14.8393 7.94223C14.7842 7.95207 14.7288 7.95899 14.6757 7.97587C14.6221 7.99047 14.5687 8.00503 14.5154 8.01951C14.4631 8.03683 14.4122 8.05802 14.3608 8.07699L14.284 8.10611C14.2592 8.11739 14.235 8.13019 14.2105 8.14211C14.1617 8.16631 14.1132 8.19043 14.0647 8.21447C13.9699 8.26743 13.8757 8.32003 13.7822 8.37223C13.4082 8.58123 13.0452 8.78415 12.6942 8.98031C11.9922 9.37259 11.3382 9.73799 10.7411 10.0716C9.54667 10.7381 8.57995 11.2775 7.91151 11.6505C7.57731 11.8364 7.31771 11.9808 7.14131 12.0789C7.05331 12.1275 6.98615 12.1646 6.94059 12.1898C6.89531 12.2147 6.87171 12.2269 6.87171 12.2269Z" fill="#3F7E86"/>
<path d="M8.99083 16.3327L8.61743 18.9723C8.61743 18.9723 13.3602 17.1336 12.421 14.5859L8.99083 16.3327Z" fill="#A499B3"/>
<path d="M8.99083 16.3327L8.61743 18.9723C8.61743 18.9723 13.3602 17.1336 12.421 14.5859L8.99083 16.3327Z" stroke="white" stroke-width="0.09" stroke-miterlimit="10"/>
<path d="M10.3115 10.3018C10.3115 10.3018 7.32888 8.68515 4.61816 10.48L6.8718 12.2268L10.3115 10.3018Z" fill="#A499B3"/>
<path d="M10.3115 10.3018C10.3115 10.3018 7.32888 8.68515 4.61816 10.48L6.8718 12.2268L10.3115 10.3018Z" stroke="white" stroke-width="0.09" stroke-miterlimit="10"/>
<path d="M16.8019 12.2084C16.8984 11.094 15.6249 8.66516 14.4495 8.09508C14.7533 7.94476 15.6641 7.54932 16.8372 7.54932C17.6576 7.54932 18.4494 7.74004 19.1914 8.11636C19.1906 8.26196 19.1699 8.84808 18.9104 9.57648C18.6429 10.3274 18.0607 11.3839 16.8019 12.2084Z" fill="#A499B3"/>
<path d="M16.8372 7.60877C17.6358 7.60877 18.407 7.79169 19.1308 8.15253C19.1265 8.34053 19.092 8.88969 18.8521 9.56081C18.6787 10.0459 18.4333 10.4994 18.1227 10.9085C17.7816 11.3578 17.3603 11.7548 16.8681 12.0914C16.8746 11.4598 16.5261 10.5913 16.1624 9.93341C15.6817 9.06393 15.1068 8.40005 14.5825 8.09773C14.9559 7.92677 15.7911 7.60877 16.8372 7.60877ZM16.8372 7.48877C15.3613 7.48877 14.3103 8.09965 14.3103 8.09965C15.5245 8.55925 16.9505 11.275 16.7235 12.3292C19.3405 10.6945 19.2511 8.07897 19.2511 8.07897C18.3935 7.63697 17.5637 7.48877 16.8372 7.48877Z" fill="white"/>
<path d="M7.22334 15.67C7.22958 15.6729 7.12542 15.9044 6.99078 16.1869C6.85606 16.4695 6.74186 16.6961 6.73562 16.6932C6.72938 16.6902 6.8335 16.4588 6.96822 16.1762C7.10286 15.8936 7.2171 15.667 7.22334 15.67Z" fill="#497C86"/>
<path d="M19.2511 8.07959C19.2511 8.07959 19.2485 8.09191 19.2422 8.11555C19.2355 8.13995 19.226 8.17495 19.2135 8.22055C19.2006 8.26691 19.1848 8.32391 19.1661 8.39115C19.1567 8.42491 19.1465 8.46119 19.1357 8.49999C19.1225 8.53803 19.1084 8.57859 19.0935 8.62147C19.0629 8.70711 19.0305 8.80291 18.9921 8.90667C18.9486 9.00847 18.9013 9.11899 18.8504 9.23775C18.8225 9.29599 18.7913 9.35511 18.7603 9.41675C18.7279 9.47767 18.6992 9.54311 18.6611 9.60571C18.5859 9.73151 18.5102 9.86695 18.4149 9.99903C18.231 10.2672 18.0021 10.5436 17.7193 10.802C17.5791 10.9324 17.4239 11.0561 17.2575 11.1739C17.175 11.2335 17.0874 11.2895 17.0033 11.3501C16.9179 11.4096 16.8203 11.4595 16.7269 11.5102C15.9692 11.9157 15.1301 12.3489 14.25 12.8054C12.4885 13.7169 10.8912 14.5368 9.7345 15.129C9.15618 15.4243 8.68814 15.6632 8.36386 15.8287C8.20222 15.9105 8.07658 15.9742 7.99058 16.0177C7.94826 16.0388 7.91582 16.055 7.89318 16.0663C7.87118 16.0771 7.85962 16.0821 7.85962 16.0821C7.85962 16.0821 7.87038 16.0756 7.89202 16.064C7.91438 16.0522 7.94642 16.0353 7.98826 16.0132C8.07378 15.9687 8.1987 15.9037 8.35942 15.8201C8.68282 15.6529 9.14966 15.4115 9.72642 15.1133C10.8816 14.5167 12.4765 13.6931 14.2385 12.7831C15.1185 12.3267 15.9581 11.894 16.7159 11.49C16.8111 11.4383 16.9036 11.3919 16.9898 11.3321C17.0756 11.2705 17.1623 11.2154 17.2449 11.156C17.4108 11.039 17.5655 10.9162 17.7053 10.7867C17.9874 10.5301 18.2162 10.2555 18.4003 9.98895C18.4958 9.85771 18.5717 9.72299 18.6472 9.59791C18.6855 9.53563 18.7144 9.47051 18.747 9.40991C18.7782 9.34859 18.8097 9.28975 18.8378 9.23179C18.8892 9.11363 18.937 9.00363 18.9811 8.90227C19.02 8.79899 19.0531 8.70363 19.0843 8.61835C19.0995 8.57563 19.1139 8.53527 19.1275 8.49735C19.1387 8.45875 19.1493 8.42259 19.159 8.38903C19.1786 8.32211 19.1952 8.26539 19.2087 8.21923C19.2221 8.17391 19.2325 8.13915 19.2397 8.11495C19.2469 8.09147 19.2511 8.07959 19.2511 8.07959Z" fill="#2E3248"/>
<path d="M12.9928 14.2986C12.9925 14.299 12.9888 14.2966 12.9819 14.2918C12.9738 14.2859 12.9638 14.2786 12.9514 14.2696C12.9233 14.2484 12.8845 14.2192 12.8353 14.1821C12.8101 14.1628 12.7822 14.1415 12.7518 14.1183C12.7219 14.0942 12.6909 14.0663 12.6568 14.0372C12.5896 13.9779 12.5098 13.9138 12.4306 13.8331C12.3902 13.7937 12.3478 13.7524 12.3037 13.7094C12.2599 13.6661 12.2182 13.6173 12.1728 13.5688C12.0807 13.4729 11.9929 13.3612 11.8983 13.2457C11.7162 13.009 11.5321 12.7361 11.3674 12.433C11.2057 12.1282 11.0799 11.8239 10.9832 11.5413C10.9391 11.3986 10.8946 11.2638 10.8656 11.134C10.8502 11.0694 10.8325 11.0077 10.8206 10.9472C10.8092 10.8867 10.7982 10.8286 10.7876 10.773C10.764 10.6625 10.7547 10.5606 10.7425 10.4718C10.737 10.4273 10.7309 10.386 10.7273 10.3478C10.7248 10.3096 10.7224 10.2747 10.7203 10.243C10.7166 10.1815 10.7136 10.133 10.7115 10.098C10.7108 10.0826 10.7102 10.0702 10.7098 10.0602C10.7096 10.0517 10.7097 10.0474 10.7101 10.0474C10.7106 10.0473 10.7113 10.0516 10.7124 10.0601C10.7135 10.07 10.7148 10.0824 10.7165 10.0977C10.7198 10.1326 10.7243 10.1809 10.73 10.2422C10.7328 10.2737 10.7358 10.3086 10.7392 10.3466C10.7434 10.3846 10.7503 10.4257 10.7563 10.47C10.7699 10.5584 10.7804 10.6599 10.805 10.7698C10.816 10.8251 10.8275 10.8829 10.8395 10.9431C10.8518 11.0032 10.8699 11.0646 10.8856 11.1289C10.9154 11.258 10.9606 11.392 11.005 11.534C11.1025 11.815 11.2284 12.1177 11.3895 12.4212C11.5534 12.723 11.7362 12.9951 11.9165 13.2316C12.0102 13.347 12.097 13.4588 12.1882 13.5548C12.233 13.6035 12.2742 13.6525 12.3176 13.696C12.3611 13.7392 12.403 13.7808 12.443 13.8204C12.521 13.9017 12.5997 13.9665 12.6659 14.0266C12.6995 14.0562 12.73 14.0845 12.7594 14.1092C12.7892 14.1329 12.8166 14.1547 12.8414 14.1745C12.8892 14.213 12.927 14.2435 12.9544 14.2655C12.9662 14.2754 12.9757 14.2833 12.9834 14.2897C12.9898 14.2953 12.993 14.2983 12.9928 14.2986Z" fill="#2E3248"/>
<path d="M10.1112 12.492L5.48364 14.8885C5.48364 14.8885 5.59632 15.3745 5.71796 15.3446C5.81984 15.3196 9.28764 13.6347 10.4122 13.0877C10.5962 12.9982 10.6555 12.7666 10.5391 12.5984C10.4435 12.4603 10.2603 12.4148 10.1112 12.492Z" fill="#E9EDDE"/>
<path d="M10.1112 12.492L5.48364 14.8885C5.48364 14.8885 5.59632 15.3745 5.71796 15.3446C5.81984 15.3196 9.28764 13.6347 10.4122 13.0877C10.5962 12.9982 10.6555 12.7666 10.5391 12.5984C10.4435 12.4603 10.2603 12.4148 10.1112 12.492Z" stroke="white" stroke-width="0.09" stroke-miterlimit="10"/>
<path d="M14.9221 10.6539C15.0905 11.257 14.701 11.8928 14.0522 12.074C13.4033 12.2551 12.7409 11.9131 12.5724 11.31C12.404 10.7068 12.7935 10.071 13.4423 9.88981C14.0911 9.70865 14.7536 10.0507 14.9221 10.6539Z" fill="#E9EDDE"/>
<path d="M14.922 10.6539C14.9216 10.654 14.9192 10.648 14.9147 10.6362C14.91 10.6232 14.9036 10.6058 14.8955 10.5836C14.8914 10.5719 14.8868 10.559 14.8818 10.5448C14.8752 10.531 14.868 10.5161 14.8603 10.5C14.8526 10.4838 14.8442 10.4663 14.8353 10.4477C14.8256 10.4296 14.8133 10.4112 14.8014 10.3913C14.779 10.3503 14.7458 10.3103 14.7116 10.2652C14.6735 10.2235 14.633 10.1769 14.5814 10.1354C14.4813 10.0498 14.3509 9.96984 14.1934 9.917C14.0364 9.86464 13.852 9.83648 13.6579 9.85996C13.6095 9.86652 13.5601 9.87164 13.5114 9.88496C13.4869 9.891 13.4619 9.8956 13.4374 9.90288C13.4131 9.91096 13.3886 9.91908 13.3639 9.92728L13.3268 9.93972L13.2908 9.9556C13.2667 9.96624 13.2425 9.97692 13.218 9.98768C13.1947 10.0006 13.1712 10.0137 13.1476 10.0268L13.112 10.0467L13.0782 10.0699C12.8961 10.1905 12.7352 10.368 12.6401 10.5867C12.5402 10.8033 12.5194 11.0628 12.5844 11.3064C12.655 11.5486 12.8073 11.7599 13.005 11.8934C13.1997 12.0313 13.4292 12.0998 13.6476 12.1086L13.6884 12.111L13.7291 12.1096C13.7562 12.1085 13.783 12.1075 13.8097 12.1065C13.8362 12.103 13.8625 12.0996 13.8886 12.0962L13.9277 12.0912L13.9658 12.0825C13.9912 12.0768 14.0163 12.0711 14.0412 12.0654C14.066 12.0589 14.0898 12.0499 14.1139 12.0424C14.1625 12.0285 14.2074 12.0072 14.2522 11.9878C14.4304 11.9073 14.5734 11.7877 14.6806 11.6616C14.788 11.5348 14.858 11.3988 14.8994 11.2737C14.9219 11.2115 14.9325 11.1507 14.9434 11.0952C14.9494 11.039 14.9569 10.9876 14.9549 10.941C14.9547 10.9177 14.9558 10.8956 14.9547 10.8751C14.9526 10.8546 14.9507 10.8354 14.9489 10.8175C14.9472 10.7997 14.9456 10.7832 14.9441 10.768C14.941 10.7533 14.9383 10.7398 14.9358 10.7277C14.9312 10.7046 14.9276 10.6864 14.9249 10.6728C14.9226 10.6604 14.9216 10.654 14.922 10.6539C14.9225 10.6538 14.9243 10.66 14.9274 10.6722C14.9307 10.6856 14.9351 10.7037 14.9407 10.7267C14.9436 10.7389 14.9468 10.7523 14.9502 10.767C14.9521 10.7822 14.9541 10.7988 14.9562 10.8166C14.9584 10.8346 14.9608 10.8539 14.9632 10.8746C14.9648 10.8953 14.9641 10.9175 14.9646 10.941C14.9674 10.9881 14.9606 11.04 14.9552 11.097C14.9449 11.1531 14.9348 11.2148 14.9127 11.278C14.8721 11.4051 14.8022 11.5435 14.6942 11.673C14.5863 11.8016 14.4417 11.9239 14.261 12.0066C14.2156 12.0265 14.17 12.0483 14.1206 12.0626C14.0962 12.0704 14.0721 12.0796 14.047 12.0863C14.0216 12.0922 13.9961 12.0981 13.9703 12.104L13.9316 12.1129L13.8918 12.1182C13.8653 12.1218 13.8386 12.1254 13.8116 12.129C13.7845 12.1301 13.7572 12.1312 13.7296 12.1323L13.6882 12.1339L13.6465 12.1316C13.4242 12.1232 13.19 12.054 12.9909 11.9135C12.7889 11.7773 12.6325 11.5612 12.5603 11.3132C12.4937 11.0637 12.5154 10.7979 12.6177 10.5768C12.7152 10.3536 12.8796 10.173 13.0655 10.0507L13.1 10.0272L13.1362 10.0071C13.1602 9.9938 13.1842 9.98056 13.208 9.96748C13.2329 9.9566 13.2576 9.9458 13.2822 9.93508L13.3189 9.91904L13.3567 9.90656C13.3818 9.89832 13.4066 9.89016 13.4314 9.88204C13.4563 9.87476 13.4818 9.87012 13.5067 9.86412C13.5563 9.8508 13.6066 9.8458 13.6558 9.83936C13.8531 9.81644 14.0402 9.84608 14.199 9.90024C14.3585 9.95496 14.4901 10.0372 14.5906 10.1248C14.6423 10.1674 14.6829 10.215 14.7208 10.2576C14.7549 10.3036 14.7877 10.3445 14.8097 10.3862C14.8214 10.4066 14.8334 10.4252 14.8429 10.4438C14.8515 10.4626 14.8596 10.4804 14.867 10.4969C14.8744 10.5133 14.8812 10.5285 14.8875 10.5425C14.8922 10.5569 14.8964 10.57 14.9003 10.5819C14.9074 10.6045 14.9129 10.6222 14.9171 10.6354C14.9208 10.6475 14.9225 10.6538 14.922 10.6539Z" fill="white"/>
</g>
</svg>
