<svg width="21" height="21" viewBox="0 0 21 21" fill="none" xmlns="http://www.w3.org/2000/svg">
<path d="M3.275 7.5459C1.77644 7.55598 0.839844 8.56482 0.839844 10.0659C0.839844 11.6535 1.75544 12.6044 3.28676 12.6145C4.808 12.6044 5.69504 11.6863 5.72276 10.0667C5.69672 8.52282 4.76348 7.55682 3.275 7.54674V7.5459Z" fill="#4A5565"/>
<path d="M10.0738 7.5459C8.57527 7.55598 7.63867 8.56482 7.63867 10.0659C7.63867 11.6535 8.55427 12.6044 10.0856 12.6145C11.6068 12.6044 12.4939 11.6863 12.5216 10.0667C12.4956 8.52282 11.5623 7.55682 10.0738 7.54674V7.5459Z" fill="#4A5565"/>
<path d="M16.8727 7.5459C15.3741 7.55598 14.4375 8.56482 14.4375 10.0659C14.4375 11.6535 15.3531 12.6044 16.8844 12.6145C18.4057 12.6044 19.2927 11.6863 19.3204 10.0667C19.2944 8.52282 18.3611 7.55682 16.8727 7.54674V7.5459Z" fill="#4A5565"/>
</svg>
