<svg width="22" height="26" viewBox="0 0 22 26" fill="none" xmlns="http://www.w3.org/2000/svg">
<g opacity="0.2">
<path d="M10.5324 23.0562C12.6566 23.0562 14.3812 23.4917 14.3812 24.0281C14.3812 24.5645 12.6566 25 10.5324 25C8.40825 25 6.68359 24.5645 6.68359 24.0281C6.68359 23.4917 8.40825 23.0562 10.5324 23.0562Z" fill="#0A9048"/>
</g>
<path d="M3.80515 17.286C2.07239 15.5599 1 13.1714 1 10.5323C1 5.26783 5.26783 1 10.5323 1C15.7968 1 20.0646 5.26783 20.0646 10.5323C20.0646 13.1714 18.9922 15.5599 17.2593 17.286L17.2725 17.2992L10.5323 24.0396L3.79191 17.2992L3.80515 17.286Z" fill="#02A292"/>
<path d="M3.80515 17.286C2.07239 15.5599 1 13.1714 1 10.5323C1 5.26783 5.26783 1 10.5323 1C15.7968 1 20.0646 5.26783 20.0646 10.5323C20.0646 13.1714 18.9922 15.5599 17.2593 17.286L17.2725 17.2992L10.5323 24.0396L3.79191 17.2992L3.80515 17.286Z" stroke="#02A292" stroke-width="2"/>
<path d="M10.5322 3.27295C14.6268 3.27295 17.9462 6.59231 17.9462 10.687C17.9462 14.7816 14.6268 18.101 10.5322 18.101C6.43753 18.101 3.11816 14.7816 3.11816 10.687C3.11816 6.59231 6.43753 3.27295 10.5322 3.27295Z" fill="white"/>
<path d="M4.28125 15.0761C6.36507 14.8414 8.44908 14.7241 10.5331 14.7241C12.6169 14.7241 14.7009 14.8414 16.7847 15.0761C15.3326 16.9319 13.0722 18.1244 10.5331 18.1244C7.994 18.1244 5.73337 16.9319 4.28125 15.0761Z" fill="#0A9048" fill-opacity="0.3"/>
<path d="M6.2959 12.6089V12.1164H7.61983C7.76617 12.1164 7.88462 12.2266 7.88462 12.3626C7.88462 12.4986 7.76617 12.6089 7.61983 12.6089H6.82547V14.0862H12.1212V9.16186H6.82547V10.1467H9.73812C9.88446 10.1467 10.0029 10.2569 10.0029 10.3929C10.0029 10.529 9.88446 10.6391 9.73812 10.6391H6.2959V10.1467V9.16301C6.2959 8.89382 6.53368 8.66943 6.82671 8.66943H12.1198C12.4095 8.66943 12.6508 8.89053 12.6508 9.16301V10.6391H13.4499C13.5892 10.6391 13.7925 10.716 13.8944 10.8107L14.5846 11.4525C14.6859 11.5467 14.7691 11.7337 14.7691 11.8691V14.3324C14.7691 14.4645 14.6504 14.5786 14.5043 14.5786H13.7099C13.7099 15.1224 13.2356 15.5634 12.6508 15.5634C12.0659 15.5634 11.5916 15.1224 11.5916 14.5786H9.47334C9.47334 15.1224 8.99902 15.5634 8.41419 15.5634C7.82937 15.5634 7.35504 15.1224 7.35504 14.5786H6.82671C6.53721 14.5786 6.2959 14.3575 6.2959 14.0848V12.6089ZM14.2395 12.6089H13.4427C13.2946 12.6089 13.1803 12.4986 13.1803 12.3626C13.1803 12.2307 13.2977 12.1164 13.4427 12.1164H14.2395V11.8691C14.2395 11.8643 14.2121 11.8024 14.2102 11.8006L13.52 11.159C13.5186 11.1577 13.4506 11.1316 13.4499 11.1316H12.6508V14.0862H14.2395V12.6089ZM6.56068 11.1316H8.67898C8.82532 11.1316 8.94376 11.2417 8.94376 11.3778C8.94376 11.5139 8.82532 11.624 8.67898 11.624H6.56068C6.41435 11.624 6.2959 11.5139 6.2959 11.3778C6.2959 11.2417 6.41435 11.1316 6.56068 11.1316ZM13.1803 14.5786H12.1212C12.1212 14.8506 12.3583 15.071 12.6508 15.071C12.9433 15.071 13.1803 14.8506 13.1803 14.5786ZM8.94376 14.5786H7.88462C7.88462 14.8506 8.12169 15.071 8.41419 15.071C8.70669 15.071 8.94376 14.8506 8.94376 14.5786Z" fill="black"/>
<g opacity="0.455055">
<path d="M15.9212 9.00845C15.3341 8.66052 15.1402 7.90254 15.4882 7.31545C15.8361 6.72837 16.5941 6.5345 17.1812 6.88244C17.7683 7.23037 17.9621 7.98835 17.6142 8.57544C17.2663 9.16252 16.5083 9.35639 15.9212 9.00845ZM16.1012 8.70474C16.5206 8.95332 17.0619 8.81487 17.3105 8.39544C17.559 7.97616 17.4206 7.43473 17.0012 7.18615C16.5819 6.93767 16.0404 7.07617 15.7919 7.49545C15.5433 7.91488 15.6819 8.45625 16.1012 8.70474Z" fill="#F8E71C"/>
</g>
</svg>
