<svg width="32" height="26" viewBox="0 0 32 26" fill="none" xmlns="http://www.w3.org/2000/svg">
<path d="M4.25174 25.0002H27.663C28.736 25.0002 29.6139 24.1224 29.6139 23.0493L29.6146 4.33887H2.30152L2.30078 23.0493C2.30078 24.1224 3.17874 25.0002 4.25174 25.0002Z" fill="#A04331"/>
<path d="M22.9156 8.80469L8.95273 8.82088L8.94922 11.9328C8.94922 11.9328 13.3601 12.7595 16.3723 12.7903C19.3845 12.8212 23.2474 11.6529 23.2474 11.6529L22.9156 8.80469Z" fill="white"/>
<path d="M29.5624 4.68165V23.0126C29.5624 24.0813 28.6881 24.9556 27.6194 24.9556H4.30336C3.2347 24.9556 2.36035 24.0813 2.36035 23.0126V4.62012" stroke="#C46D5D" stroke-width="0.46262" stroke-linecap="round" stroke-linejoin="round"/>
<path d="M10.7803 3.91451L11.6998 1.8455C11.9072 1.37887 12.4902 1 13.0009 1H18.9224C19.433 1 20.016 1.37887 20.2234 1.8455L21.143 3.91451" stroke="#C46D5D" stroke-width="0.539724" stroke-linecap="round" stroke-linejoin="round"/>
<path d="M26.4747 11.0811C19.6074 13.0754 12.3145 13.0754 5.44727 11.0811" stroke="#C56E5D" stroke-width="0.46262" stroke-linecap="round" stroke-linejoin="round"/>
<path d="M2.95096 4.19043H28.9636C30.0366 4.19043 30.9145 5.06848 30.9145 6.14139V10.3684L15.9573 13.3912L1 10.3684V6.14139C1 5.0683 1.87796 4.19043 2.95096 4.19043Z" fill="#903827"/>
<path d="M14.2666 10.1396H17.6482V14.952C17.6482 15.8819 16.8873 16.6428 15.9574 16.6428C15.0274 16.6428 14.2666 15.8819 14.2666 14.952V10.1396Z" fill="#9F4230"/>
<path d="M14.0014 12.9984L1.06445 10.3838V6.17396C1.06445 5.10531 1.93881 4.23096 3.00746 4.23096H28.9142C29.9829 4.23096 30.8572 5.10549 30.8572 6.17396V10.3838L17.9576 12.9908" stroke="#B96859" stroke-width="0.46262" stroke-linecap="round" stroke-linejoin="round"/>
<path d="M14.2773 10.1558H17.6452V14.9485C17.6452 15.8747 16.8874 16.6324 15.9613 16.6324C15.0351 16.6324 14.2773 15.8747 14.2773 14.9485V10.1558Z" stroke="#C56D5D" stroke-width="0.46262" stroke-linecap="round" stroke-linejoin="round"/>
</svg>
