<svg width="23" height="24" viewBox="0 0 23 24" fill="none" xmlns="http://www.w3.org/2000/svg">
<path d="M5.51051 12.764C5.51051 12.764 3.09224 6.32178 5.80353 5.10518C8.51481 3.88858 9.023 5.17831 11.6256 5.30631C14.228 5.43444 16.7959 3.78942 19.0271 5.10518C21.2583 6.42094 19.9839 9.72834 20.2648 11.0444C20.5457 12.3604 22.8904 17.505 20.6148 19.096C18.3393 20.6871 16.7586 19.1255 13.6855 19.9517C10.6124 20.7782 7.16128 22.4138 4.71289 19.4127C2.26424 16.4114 5.51051 15.7891 5.51051 12.764Z" fill="white"/>
<mask id="mask0_1445_60" style="mask-type:alpha" maskUnits="userSpaceOnUse" x="0" y="0" width="23" height="22">
<path d="M0 0.661133V14.3976L4.83909 19.5569C4.9343 19.6662 5.03078 19.7697 5.12879 19.8658L5.15049 19.889L5.15138 19.8887C7.56289 22.2243 10.7919 20.7299 13.6862 19.9515C16.7593 19.1253 18.34 20.6868 20.6156 19.0957C20.6966 19.0392 20.7702 18.9769 20.8398 18.9117L20.8411 18.9119L22.9716 17.1923V0.661133H0Z" fill="#FF00F8"/>
</mask>
<g mask="url(#mask0_1445_60)">
<path d="M10.4213 14.2626C10.5834 13.7955 12.5901 15.8236 13.7649 15.7212C13.6523 15.0589 10.011 12.6446 10.3326 11.8748C10.6277 11.1709 13.1915 13.0068 14.7248 14.041C13.7056 12.8889 11.1241 10.5062 11.6102 9.94405C12.0204 9.46931 14.8147 12.0647 15.9909 13.0813C15.8795 12.8396 13.3636 9.33135 13.979 8.78948C14.8284 8.04111 17.3785 12.4939 17.8254 13.2992C18.523 14.5551 18.9434 19.3281 18.2078 19.7941C18.2078 19.7941 13.8131 20.2663 13.413 20.0182C10.8695 18.4395 10.2022 14.8956 10.4213 14.2626Z" fill="#FFD3C4"/>
<path d="M16.0303 13.6648C16.6177 14.3473 18.6457 17.9267 18.3089 14.907C17.7128 12.2483 16.1631 9.90234 16.1631 9.90234L16.0303 13.6648Z" fill="#FFC2A6"/>
</g>
<path d="M20.1037 1.06515V19.8245C20.1041 20.4124 19.6279 20.8891 19.0399 20.8895H19.0386H9.69796C9.41406 20.8904 9.14165 20.7769 8.94265 20.5742C8.74473 20.375 8.63318 20.1055 8.63281 19.8245V1.06515C8.63245 0.477255 9.10861 0.000364953 9.6965 0H9.69796H19.0406C19.2144 0 19.3791 0.0418101 19.5241 0.115936C19.8797 0.298877 20.1036 0.665126 20.1037 1.06515Z" fill="#585858"/>
<path d="M8.59663 7.54775C8.40201 7.5483 8.24371 7.39092 8.24316 7.19629V7.19447V5.42311C8.2428 5.22848 8.4 5.07019 8.59462 5.06982H8.59663C8.61653 5.06982 8.63278 5.08626 8.63278 5.10616V7.51325C8.63278 7.53151 8.61635 7.54775 8.59663 7.54775ZM20.1307 7.54775C20.3254 7.5483 20.4833 7.39092 20.4838 7.19629V7.19447V5.42311C20.4844 5.22848 20.327 5.07019 20.1324 5.06982H20.1307C20.1108 5.06982 20.0946 5.08626 20.0946 5.10616V7.51325C20.0946 7.53151 20.111 7.54775 20.1307 7.54775ZM8.59663 10.3605C8.40201 10.3609 8.24371 10.2037 8.24316 10.0091V10.0074V8.23589C8.2428 8.04126 8.40036 7.88315 8.59499 7.88278H8.59663C8.61653 7.88278 8.63278 7.89921 8.63278 7.91893V10.3262C8.63278 10.3461 8.61635 10.3605 8.59663 10.3605Z" fill="#444444"/>
<mask id="mask1_1445_60" style="mask-type:alpha" maskUnits="userSpaceOnUse" x="8" y="3" width="13" height="21">
<path d="M20.8347 4.11484V23.4013C20.8349 23.7316 20.5377 23.9996 20.1706 24H20.1689H9.55134C9.29755 24.0002 9.06597 23.8704 8.95427 23.6654V23.6633C8.90921 23.5818 8.88574 23.4922 8.88574 23.4011V4.11522C8.88532 3.78492 9.18271 3.51649 9.54967 3.51611H9.55134H20.1689C20.2833 3.51611 20.3935 3.54252 20.4872 3.5893H20.4895C20.7027 3.69456 20.8351 3.89621 20.8347 4.11522V4.11484Z" fill="#FB06B0"/>
</mask>
<g mask="url(#mask1_1445_60)">
<path d="M20.8347 0.384372V27.3043C20.8349 27.6346 20.5377 27.9027 20.1706 27.9031H20.1689H9.55134C9.29755 27.9033 9.06597 27.7733 8.95427 27.5682V27.5664C8.90921 27.485 8.88574 27.3953 8.88574 27.3041V0.384562C8.88532 0.0542605 9.18271 -0.21379 9.54967 -0.214355H9.55134H20.1689C20.2833 -0.214355 20.3935 -0.188135 20.4872 -0.141353H20.4895C20.7027 -0.0360951 20.8351 0.165745 20.8347 0.384562V0.384372Z" fill="#EDEDED"/>
<path d="M18.7708 9.49404H10.9659C10.0937 9.49441 9.38616 8.85852 9.38574 8.07342V8.07191C9.38532 7.28681 10.092 6.64979 10.9642 6.64941H10.9659H18.7687C19.6409 6.64885 20.3484 7.28512 20.3489 8.07022V8.07191C20.351 8.85607 19.6418 9.49404 18.7708 9.49404Z" fill="#AAAAAA"/>
<path d="M17.6609 14.8131C16.2699 14.8131 15.1328 13.7892 15.1328 12.5372C15.1328 11.2853 16.2699 10.2617 17.6609 10.2617C19.0518 10.2617 20.1887 11.2853 20.1887 12.5372C20.191 13.7873 19.0518 14.8131 17.6609 14.8131Z" fill="white"/>
<path d="M17.7069 10.7598C18.7209 10.7598 19.5428 11.4996 19.5428 12.4122C19.5428 13.3248 18.7209 14.0647 17.7069 14.0647C16.693 14.0647 15.8711 13.3248 15.8711 12.4122C15.8711 11.4996 16.693 10.7598 17.7069 10.7598Z" fill="#FFF4F4"/>
<path d="M15.6895 13.6864L16.9852 14.231C18.8397 13.7707 19.7522 13.5123 19.7252 13.4582C19.6981 13.4038 19.2241 13.2952 18.3051 13.1343L15.6899 13.6864H15.6895Z" fill="#50E3C2"/>
<path d="M16.3274 13.6826C16.292 13.6134 16.5502 13.5647 17.103 13.5366L18.4462 13.1662L18.3051 13.1343C16.5604 13.4302 15.6895 13.6134 15.6895 13.6883C15.6895 13.7987 16.7853 14.2329 16.9014 14.2329C16.9783 14.2329 17.1466 14.1935 17.4025 14.115C16.7229 13.8941 16.3628 13.7519 16.3274 13.6826Z" fill="#008AB6"/>
<path d="M16.7518 13.2538C16.7518 13.2538 16.3651 13.5122 16.6644 13.6356C16.9639 13.7592 17.1697 14.0193 17.7768 13.8695C18.386 13.7216 18.5876 13.6262 18.6958 13.5645C18.8039 13.5028 19.0179 13.4279 18.627 13.2089C18.2362 12.9901 16.7518 13.2538 16.7518 13.2538Z" fill="#008AB6"/>
<path d="M17.3194 13.7851C17.0223 13.6634 17.4068 13.4033 17.4068 13.4033C17.4068 13.4033 17.5483 13.2347 18.7313 13.272C18.702 13.2534 18.6668 13.2309 18.6249 13.2066C18.2342 12.9896 16.7498 13.2517 16.7498 13.2517C16.7498 13.2517 16.3632 13.5101 16.6624 13.6335C16.9221 13.7402 17.1115 13.9498 17.5544 13.9066C17.4775 13.8617 17.4024 13.8187 17.3196 13.7851H17.3194Z" fill="#9B9B9B"/>
<path d="M17.4227 11.6371C17.4227 11.6371 17.036 11.8653 16.7782 11.9511C16.7782 11.9511 16.6827 11.9887 16.6971 12.1122C16.7116 12.2375 16.5557 13.2444 16.5557 13.2444C16.5557 13.2444 17.1192 13.3959 17.587 13.3902C18.0547 13.3846 18.6996 13.3172 18.6996 13.3172C18.6996 13.3172 18.8343 13.3716 18.8492 13.0684C18.8639 12.7653 18.8218 11.9998 18.5787 11.6818C18.3353 11.3635 18.7411 11.3205 18.5642 10.965C18.3875 10.6094 17.3355 10.297 17.3395 11.1334C17.3353 11.1353 17.3022 11.5527 17.4227 11.6371Z" fill="#008AB6"/>
<path d="M17.2646 13.3757C17.0132 13.3102 17.0568 13.0837 17.0568 13.0837C17.0568 13.0837 17.1775 12.3127 17.1647 12.1892C17.1523 12.0658 17.246 12.0281 17.246 12.0281C17.5038 11.9421 17.8902 11.7138 17.8902 11.7138C17.7699 11.6276 17.803 11.2103 17.803 11.2103C17.8011 10.8644 17.9799 10.7163 18.2025 10.6844C17.8345 10.5311 17.3311 10.559 17.3355 11.1373C17.3355 11.1373 17.3019 11.5527 17.4227 11.6408C17.4227 11.6408 17.036 11.8691 16.7782 11.9551C16.7782 11.9551 16.6827 11.9928 16.6971 12.1162C16.7116 12.2416 16.5557 13.2484 16.5557 13.2484C16.5557 13.2484 16.8927 13.3383 17.2646 13.3757Z" fill="#9B9B9B"/>
<path d="M17.5124 10.9035C17.5124 10.9035 18.1568 10.81 18.0531 11.4257C17.9468 12.0395 17.3148 11.7905 17.3273 11.463C17.3357 11.1355 17.3022 10.9744 17.5124 10.9035Z" fill="#FFD3C4"/>
<path d="M17.6158 11.463C17.6263 11.156 17.5991 10.9951 17.7655 10.9184C17.6345 10.8867 17.5096 10.9033 17.5096 10.9033C17.3017 10.9746 17.335 11.1355 17.3224 11.463C17.3141 11.6893 17.6158 11.8785 17.8361 11.7699C17.7093 11.712 17.6119 11.5941 17.6158 11.463Z" fill="#50E3C2"/>
<path d="M17.7552 11.3789C17.7508 11.4033 17.7904 11.4259 17.8403 11.4278C17.8902 11.4316 17.934 11.4127 17.9382 11.3884C17.9424 11.364 17.9028 11.3414 17.8529 11.3395C17.8009 11.3376 17.7573 11.3546 17.7552 11.3789Z" fill="#4A90E2"/>
<path d="M17.7133 11.2554C17.7152 11.2554 17.7152 11.2554 17.7133 11.2554C17.7257 11.2554 17.7341 11.2648 17.732 11.2742C17.732 11.2816 17.7385 11.2891 17.7467 11.2908C17.7506 11.2908 17.755 11.2891 17.759 11.2873C17.7611 11.2854 17.7634 11.2814 17.7655 11.2778C17.7655 11.2684 17.7756 11.2608 17.7859 11.2608C17.7963 11.2608 17.8047 11.2705 17.8026 11.2799C17.8026 11.2931 17.7942 11.3059 17.7838 11.3133C17.7735 11.3223 17.7588 11.3265 17.7444 11.3246C17.7148 11.3221 17.6928 11.2988 17.6947 11.2722C17.6966 11.2627 17.705 11.2554 17.7133 11.2554ZM17.3598 11.2554C17.3726 11.2554 17.3807 11.2648 17.3787 11.2742C17.3787 11.2816 17.3847 11.2891 17.3931 11.2908C17.3975 11.2908 17.4015 11.2891 17.4057 11.2873C17.4078 11.2854 17.4097 11.2814 17.4118 11.2778C17.4118 11.2684 17.4225 11.2608 17.4327 11.2608C17.443 11.2608 17.4514 11.2705 17.4495 11.2799C17.4495 11.2931 17.4411 11.3059 17.4306 11.3133C17.4201 11.3223 17.4055 11.3265 17.391 11.3246C17.3615 11.3221 17.339 11.2989 17.3409 11.2722C17.3409 11.2627 17.3493 11.2554 17.3598 11.2554Z" fill="#333333"/>
<path d="M17.537 11.4497H17.5265C17.4909 11.4467 17.4586 11.4306 17.437 11.405C17.4267 11.3918 17.4286 11.3712 17.4452 11.3618C17.4598 11.3524 17.4827 11.3541 17.4932 11.3691C17.5036 11.3805 17.5181 11.388 17.5323 11.3899C17.5493 11.3918 17.564 11.3863 17.5761 11.3769C17.591 11.3656 17.6118 11.3656 17.6241 11.3788C17.6367 11.392 17.6369 11.4105 17.6223 11.4237C17.5975 11.4401 17.5676 11.4491 17.537 11.4497Z" fill="#50E3C2"/>
<path d="M11.9138 14.8131C10.5229 14.8131 9.38574 13.7892 9.38574 12.5372C9.38574 11.2853 10.5229 10.2617 11.9138 10.2617C13.3047 10.2617 14.4417 11.2853 14.4417 12.5372C14.444 13.7873 13.3047 14.8131 11.9138 14.8131Z" fill="white"/>
<path d="M11.8999 11.0327C12.8218 11.0327 13.5694 11.7054 13.5694 12.5354C13.5694 13.3654 12.8218 14.0381 11.8999 14.0381C10.978 14.0381 10.2305 13.3654 10.2305 12.5354C10.2305 11.7054 10.978 11.0327 11.8999 11.0327Z" fill="#FFF4F4"/>
<path d="M13.2222 13.4111C13.3299 13.4111 13.4209 13.4579 13.4209 13.516V13.9314C13.4209 13.9895 13.3299 14.0363 13.2222 14.0363C13.1145 14.0363 13.0235 13.9895 13.0235 13.9314V13.516C13.0202 13.4579 13.1111 13.4111 13.2222 13.4111Z" fill="#008AB6"/>
<path d="M13.0234 13.5703H13.4208V13.8325H13.0234V13.5703Z" fill="#008AB6"/>
<path d="M12.7997 13.4111C12.9074 13.4111 12.9984 13.4579 12.9984 13.516V13.9314C12.9984 13.9895 12.9074 14.0363 12.7997 14.0363C12.6917 14.0363 12.6006 13.9895 12.6006 13.9314V13.516C12.6006 13.4579 12.6884 13.4111 12.7997 13.4111Z" fill="#008AB6"/>
<path d="M12.6006 13.5703H12.9979V13.8325H12.6006V13.5703Z" fill="#008AB6"/>
<path d="M12.2372 13.4111C12.3449 13.4111 12.4359 13.4579 12.4359 13.516V13.9314C12.4359 13.9895 12.3449 14.0363 12.2372 14.0363C12.1292 14.0363 12.0381 13.9895 12.0381 13.9314V13.516C12.0381 13.4579 12.1259 13.4111 12.2372 13.4111Z" fill="#008AB6"/>
<path d="M12.0381 13.5703H12.4354V13.8325H12.0381V13.5703Z" fill="#008AB6"/>
<path d="M11.8139 13.4111C11.9216 13.4111 12.0126 13.4579 12.0126 13.516V13.9314C12.0126 13.9895 11.9216 14.0363 11.8139 14.0363C11.7062 14.0363 11.6152 13.9895 11.6152 13.9314V13.516C11.6152 13.4579 11.7062 13.4111 11.8139 13.4111Z" fill="#008AB6"/>
<path d="M11.6152 13.5703H12.0126V13.8325H11.6152V13.5703Z" fill="#008AB6"/>
<path d="M11.2631 13.4111C11.3711 13.4111 11.4622 13.4579 11.4622 13.516V13.9314C11.4622 13.9895 11.3713 14.0363 11.2635 14.0363C11.1556 14.0363 11.0645 13.9895 11.0645 13.9314V13.516C11.068 13.4579 11.1556 13.4111 11.2635 13.4111H11.2631Z" fill="#008AB6"/>
<path d="M11.0645 13.5703H11.4618V13.8325H11.0645V13.5703Z" fill="#008AB6"/>
<path d="M10.8422 13.4111C10.9502 13.4111 11.0413 13.4579 11.0413 13.516V13.9314C11.0413 13.9895 10.9502 14.0363 10.8422 14.0363C10.7345 14.0363 10.6436 13.9895 10.6436 13.9314V13.516C10.6436 13.4579 10.7312 13.4111 10.8422 13.4111Z" fill="#008AB6"/>
<path d="M10.6436 13.5703H11.0409V13.8325H10.6436V13.5703Z" fill="#008AB6"/>
<path d="M10.8422 11.6637C10.7345 11.6637 10.6436 11.6169 10.6436 11.5588V11.1435C10.6436 11.0854 10.7345 11.0386 10.8422 11.0386C10.9502 11.0386 11.0413 11.0854 11.0413 11.1435V11.5588C11.038 11.6169 10.9502 11.6637 10.8422 11.6637Z" fill="#008AB6"/>
<path d="M10.6436 11.2427H11.0409V11.5049H10.6436V11.2427Z" fill="#008AB6"/>
<path d="M11.2631 11.6637C11.1554 11.6637 11.0645 11.6169 11.0645 11.5588V11.1435C11.0645 11.0854 11.1556 11.0386 11.2635 11.0386C11.3713 11.0386 11.4622 11.0854 11.4622 11.1435V11.5588C11.4622 11.6169 11.3746 11.6637 11.2635 11.6637H11.2631Z" fill="#008AB6"/>
<path d="M11.0664 11.2427H11.4638V11.5049H11.0664V11.2427Z" fill="#008AB6"/>
<path d="M11.8139 11.6637C11.7062 11.6637 11.6152 11.6169 11.6152 11.5588V11.1435C11.6152 11.0854 11.7062 11.0386 11.8139 11.0386C11.9216 11.0386 12.0126 11.0854 12.0126 11.1435V11.5588C12.0126 11.6169 11.9216 11.6637 11.8139 11.6637Z" fill="#008AB6"/>
<path d="M11.6152 11.2427H12.0126V11.5049H11.6152V11.2427Z" fill="#008AB6"/>
<path d="M12.2372 11.6637C12.1292 11.6637 12.0381 11.6169 12.0381 11.5588V11.1435C12.0381 11.0854 12.1292 11.0386 12.2372 11.0386C12.3449 11.0386 12.4359 11.0854 12.4359 11.1435V11.5588C12.4359 11.6169 12.3449 11.6637 12.2372 11.6637Z" fill="#008AB6"/>
<path d="M12.0381 11.2427H12.4354V11.5049H12.0381V11.2427Z" fill="#008AB6"/>
<path d="M12.7846 11.6637C12.6769 11.6637 12.5859 11.6169 12.5859 11.5588V11.1435C12.5859 11.0854 12.6769 11.0386 12.7846 11.0386C12.8923 11.0386 12.9833 11.0854 12.9833 11.1435V11.5588C12.9833 11.6169 12.8957 11.6637 12.7846 11.6637Z" fill="#008AB6"/>
<path d="M12.5898 11.2427H12.9872V11.5049H12.5898V11.2427Z" fill="#008AB6"/>
<path d="M13.2221 11.6637C13.1144 11.6637 13.0234 11.6169 13.0234 11.5588V11.1435C13.0234 11.0854 13.1144 11.0386 13.2221 11.0386C13.3298 11.0386 13.4208 11.0854 13.4208 11.1435V11.5588C13.4174 11.6169 13.3298 11.6637 13.2221 11.6637Z" fill="#008AB6"/>
<path d="M13.0186 11.2427H13.4159V11.5049H13.0186V11.2427Z" fill="#008AB6"/>
<path d="M10.5684 13.224V13.1193V12.7001V12.5952V12.1761V12.0712V11.6521V11.5472C10.5684 11.4874 10.5705 11.4257 10.5705 11.3657H11.0462C11.0483 11.3657 11.0504 11.3676 11.0525 11.3676H11.2977C11.2998 11.3676 11.3019 11.3676 11.304 11.3657H11.3934C11.4412 11.3657 11.4892 11.3676 11.537 11.3676H13.2333C13.2333 11.3995 13.2354 11.4293 13.2354 11.4612C13.2333 11.5828 13.2314 11.7026 13.2354 11.8243V11.8711C13.2314 11.9103 13.2333 11.9495 13.2354 11.9871V13.5646C13.2354 13.619 13.2333 13.6731 13.2333 13.7274H12.9881C12.961 13.7293 12.934 13.7237 12.907 13.7312H12.7594C12.7552 13.7293 12.7531 13.7293 12.749 13.7274H12.5059C12.5038 13.7274 12.4996 13.7274 12.4975 13.7293H12.4289C12.3749 13.7293 12.3208 13.7274 12.2646 13.7274H10.5705C10.5705 13.7012 10.5684 13.6769 10.5684 13.6507V13.224ZM10.849 12.5411V13.4541C10.849 13.4786 10.8553 13.4881 10.8865 13.4881H12.9177C12.9633 13.4881 12.9633 13.4881 12.9633 13.4484V11.6298C12.9633 11.6017 12.9529 11.5942 12.9219 11.5942H10.8905C10.8595 11.5942 10.849 11.5998 10.849 11.6298V12.5411Z" fill="#008AB6"/>
<path d="M10.8496 12.5412V11.6299C10.8496 11.6018 10.86 11.5942 10.8911 11.5942H12.9226C12.9539 11.5942 12.9639 11.5999 12.9639 11.6299C12.9618 12.2362 12.9639 12.8426 12.9639 13.4489C12.9639 13.4881 12.9641 13.4881 12.9185 13.4881H10.8871C10.8556 13.4881 10.8496 13.4806 10.8496 13.4546C10.8496 13.1495 10.8475 12.8462 10.8496 12.5412ZM11.9016 13.2299C12.0888 13.2299 12.274 13.228 12.461 13.2318C12.5257 13.2335 12.5798 13.1875 12.5817 13.1292C12.5817 13.1286 12.5817 13.1277 12.5817 13.1269C12.5796 12.8892 12.5817 12.6515 12.5796 12.4139C12.5796 12.2773 12.488 12.1632 12.3386 12.1164C12.3218 12.1107 12.3134 12.1051 12.3071 12.0902C12.2719 12.0079 12.2074 11.9479 12.1118 11.92C12.0739 11.9093 12.041 11.8874 12.0181 11.8581C11.9622 11.7889 11.8352 11.7908 11.7855 11.8638C11.7673 11.8887 11.7398 11.9072 11.7082 11.9162C11.6084 11.9462 11.538 12.0041 11.5026 12.0902C11.4963 12.1071 11.4835 12.1147 11.4649 12.1203C11.3173 12.165 11.2283 12.2756 11.2262 12.4065C11.2241 12.648 11.2262 12.8913 11.2262 13.1327C11.2262 13.1925 11.2695 13.2299 11.3402 13.2299C11.5273 13.2318 11.7145 13.2299 11.9016 13.2299ZM11.0803 11.8957C11.0803 11.9462 11.1323 11.9911 11.1905 11.9911C11.253 11.9911 11.3071 11.9443 11.3071 11.89C11.305 11.8376 11.2549 11.7965 11.1905 11.7965C11.1281 11.8002 11.0803 11.8414 11.0803 11.8957ZM12.615 11.8002C12.5504 11.8002 12.5004 11.8414 12.4983 11.8957C12.4983 11.9462 12.5546 11.993 12.615 11.993C12.6741 11.9936 12.7223 11.9509 12.7229 11.8978C12.725 11.8415 12.6772 11.8002 12.615 11.8002Z" fill="#50E3C2"/>
<path d="M11.9004 13.2294H11.3371C11.2665 13.2294 11.2229 13.1921 11.2229 13.1321C11.2229 12.8906 11.2208 12.6473 11.2229 12.406C11.225 12.2751 11.3142 12.1644 11.4618 12.1195C11.479 12.1157 11.493 12.1046 11.4993 12.0897C11.5345 12.0037 11.6051 11.9457 11.7049 11.9157C11.7367 11.9074 11.7644 11.8888 11.782 11.8633C11.8319 11.7922 11.9587 11.7884 12.0146 11.8576C12.0375 11.8869 12.0706 11.9086 12.1085 11.9193C12.2041 11.9491 12.2686 12.0093 12.3038 12.0897C12.3101 12.1048 12.3185 12.1104 12.3353 12.1161C12.4849 12.1627 12.5763 12.2766 12.5763 12.4134C12.5763 12.651 12.5742 12.8889 12.5784 13.1266C12.5773 13.1855 12.5233 13.2324 12.4579 13.2313C12.2749 13.2275 12.0878 13.2294 11.9004 13.2294ZM11.8985 13.0553H12.3309C12.3602 13.0553 12.3705 13.0515 12.3705 13.0236C12.3684 12.8195 12.3705 12.6156 12.3705 12.4117C12.3705 12.3349 12.3122 12.2823 12.2229 12.2785C12.1626 12.2766 12.1209 12.2411 12.1169 12.1906C12.1127 12.1327 12.0794 12.0972 12.0148 12.0804C11.9807 12.0733 11.9486 12.0591 11.9214 12.0393C11.9067 12.028 11.8962 12.0259 11.8836 12.0372C11.8526 12.0616 11.8151 12.0727 11.7757 12.084C11.7196 12.1008 11.6883 12.1363 11.6862 12.1849C11.682 12.2393 11.6428 12.2732 11.5783 12.2768C11.4951 12.2806 11.4329 12.3368 11.4329 12.406V13.0236C11.4329 13.0479 11.4412 13.0536 11.4681 13.0536C11.6116 13.0536 11.7552 13.0553 11.8985 13.0553ZM11.0791 11.895C11.0791 11.8407 11.1269 11.7979 11.1893 11.7979C11.2537 11.7979 11.3038 11.8388 11.3059 11.8912C11.308 11.9456 11.2518 11.9925 11.1893 11.9925C11.1296 11.9918 11.0812 11.9488 11.0791 11.895ZM12.6138 11.7995C12.676 11.7995 12.7238 11.8409 12.7217 11.8971C12.7205 11.9499 12.6727 11.9923 12.6138 11.9925C12.5534 11.9925 12.4971 11.9456 12.4971 11.895C12.4985 11.8409 12.5486 11.798 12.609 11.7994C12.6104 11.7994 12.6121 11.7995 12.6138 11.7995Z" fill="#008AB6"/>
<path d="M11.8993 13.0548H11.4688C11.4439 13.0548 11.4336 13.0511 11.4336 13.025C11.4357 12.819 11.4336 12.6132 11.4336 12.4074C11.4336 12.3382 11.4958 12.282 11.579 12.2782C11.6436 12.2745 11.683 12.2409 11.6872 12.1866C11.6893 12.136 11.7205 12.1005 11.7767 12.0856C11.814 12.0743 11.8536 12.063 11.8846 12.0389C11.8972 12.0275 11.9076 12.0294 11.9221 12.0407C11.9473 12.0613 11.9804 12.0743 12.0156 12.0819C12.0801 12.097 12.1134 12.1324 12.1176 12.1922C12.1218 12.2428 12.1633 12.2782 12.2237 12.2801C12.313 12.2839 12.3712 12.3363 12.3712 12.4131V13.025C12.3712 13.0513 12.3607 13.0567 12.3316 13.0567C12.1883 13.053 12.0426 13.0548 11.8993 13.0548Z" fill="#FAF8F5"/>
<path d="M18.607 22.3994H16.5069C15.8185 22.3986 15.2604 21.8963 15.2598 21.2766V17.1352C15.2602 16.5153 15.8183 16.0128 16.5069 16.0122H18.607C19.2957 16.0126 19.854 16.5151 19.8544 17.1352V21.2766C19.8548 21.8965 19.2967 22.3992 18.6081 22.3994H18.607Z" fill="#0D63E8"/>
<path d="M15.2598 19.6318V21.7596C15.2598 22.113 15.5779 22.3993 15.9704 22.3995H15.9711H19.1412C19.5338 22.3997 19.8521 22.1133 19.8523 21.76V21.7596V19.6318H15.2598Z" fill="white"/>
<path d="M15.7686 20.0879H19.4423V20.3161H15.7686V20.0879ZM15.7686 20.7091H19.4423V20.9373H15.7686V20.7091ZM15.7686 21.3285H18.3446V21.557H15.7686V21.3285Z" fill="#CCCCCC"/>
<path d="M16.4688 18.4304L17.2419 17.7285L17.6348 18.0786L17.9802 17.856L18.6496 18.4676L16.4688 18.4304Z" fill="white"/>
<path d="M17.7594 17.3677C17.8753 17.3677 17.9689 17.4522 17.9689 17.5563C17.9689 17.6606 17.8753 17.7449 17.7594 17.7449C17.6437 17.7449 17.5498 17.6606 17.5498 17.5563C17.5498 17.4522 17.6437 17.3677 17.7594 17.3677Z" fill="white"/>
<path d="M13.2101 22.3994H11.1107C10.422 22.3988 9.86391 21.8965 9.86328 21.2766V17.1352C9.8637 16.5153 10.4216 16.013 11.1102 16.0122H13.2101C13.899 16.0128 14.4571 16.5153 14.4575 17.1352V21.2766C14.4577 21.8965 13.8996 22.3992 13.211 22.3994H13.2101Z" fill="#0D63E8"/>
<path d="M9.86328 19.6318V21.7596C9.86328 22.113 10.1812 22.3993 10.5737 22.3995H10.5744H13.7448C14.1373 22.3997 14.4556 22.1133 14.4558 21.76V21.7596V19.6318H9.86328Z" fill="white"/>
<path d="M10.3711 20.0879H14.0449V20.3161H10.3711V20.0879ZM10.3711 20.7091H14.0449V20.9373H10.3711V20.7091ZM10.3711 21.3285H12.9472V21.557H10.3711V21.3285Z" fill="#CCCCCC"/>
<path d="M11.0723 18.4304L11.8456 17.7285L12.2385 18.0786L12.5837 17.856L13.2531 18.4676L11.0723 18.4304Z" fill="white"/>
<path d="M12.3629 17.3677C12.4786 17.3677 12.5725 17.4522 12.5725 17.5563C12.5725 17.6606 12.4786 17.7449 12.3629 17.7449C12.247 17.7449 12.1533 17.6606 12.1533 17.5563C12.1533 17.4522 12.247 17.3677 12.3629 17.3677Z" fill="white"/>
</g>
<path d="M14.3972 4.17246H10.6508C10.4427 4.17195 10.2741 4.00349 10.2734 3.79534C10.2739 3.58719 10.4427 3.41861 10.6508 3.41797H14.3972C14.6054 3.41848 14.7741 3.58719 14.7746 3.79534C14.774 4.00349 14.6054 4.17208 14.3972 4.17246Z" fill="#585858"/>
<path d="M13.5936 3.83811H11.0817C11.0309 3.83786 10.9896 3.79677 10.9893 3.74597C10.9893 3.69531 11.031 3.65332 11.0817 3.65332H13.5936C13.6443 3.65332 13.6861 3.69531 13.6861 3.74597C13.6859 3.79689 13.6445 3.83811 13.5936 3.83837V3.83811Z" fill="#444444"/>
<path d="M14.3428 3.73983C14.3432 3.80096 14.2939 3.85086 14.2328 3.85124H14.2315C14.1704 3.8515 14.1205 3.80224 14.1201 3.74111V3.73983C14.1201 3.67781 14.1696 3.62842 14.2315 3.62842C14.2936 3.62842 14.3429 3.67781 14.3429 3.73983H14.3428Z" fill="#335363"/>
<path d="M8.91483 4.24854L7.68164 5.58931H16.9925L16.1846 4.24854H8.91483Z" fill="#EFF1F6"/>
<path d="M8.99512 5.58936V6.10839C8.99524 6.47338 9.29107 6.76933 9.65606 6.76959C10.0211 6.76933 10.3167 6.47325 10.3169 6.10839V5.58936H8.99512ZM11.6247 5.58936V6.10839C11.6249 6.47338 11.9207 6.76933 12.2857 6.76959C12.6507 6.76933 12.9464 6.47325 12.9465 6.10839V5.58936H11.6247ZM14.2543 5.58936V6.10839C14.2543 6.47312 14.5849 6.76959 14.9925 6.76959C15.4002 6.76959 15.7306 6.47312 15.7306 6.10839L15.7015 5.58936H14.2543Z" fill="#DDDDDD"/>
<path d="M7.68164 5.58936V6.10839C7.68177 6.47338 7.97759 6.76933 8.34258 6.76959C8.70758 6.76933 9.0034 6.47338 9.00353 6.10839V5.58936H7.68164ZM10.3114 5.58936V6.10839C10.3115 6.47325 10.6073 6.76933 10.9722 6.76959C11.3372 6.76933 11.633 6.47338 11.6331 6.10839V5.58936H10.3114ZM12.941 5.58936V6.10839C12.9411 6.47325 13.2369 6.76933 13.6018 6.76959C13.9668 6.76933 14.2626 6.47338 14.2627 6.10839V5.58936H12.941ZM15.7023 5.58936L15.7315 6.10839C15.7315 6.47312 16.0137 6.76959 16.3618 6.76959C16.71 6.76959 16.9923 6.47312 16.9923 6.10839V5.58936H15.7023Z" fill="#0D63E8"/>
<path d="M9.99986 4.24854L8.99574 5.58931H7.68164L8.91483 4.24854H9.99986ZM11.1012 4.24854L10.3115 5.58931H11.6254L12.118 4.24854H11.1012ZM13.2193 4.24854L12.941 5.58931H14.2551V4.24854H13.2193ZM15.0388 4.24854L15.7022 5.58931H16.9925L16.1846 4.24854H15.0388Z" fill="#0D63E8"/>
<path d="M1.33372 9.87676C1.36039 9.41605 1.49592 8.9616 1.75805 8.55385C2.58478 7.26502 4.59007 6.71293 5.90685 7.54591C7.31973 8.43976 8.49231 10.7353 7.06028 12.0001C6.89948 12.1419 6.71201 12.2698 6.50692 12.3824C6.58924 12.6369 6.76152 13.0599 7.02493 13.1991C7.02493 13.1991 6.10556 13.365 5.68658 12.718C4.33687 13.1142 2.66952 12.9395 1.91873 11.8697C1.50601 11.2797 1.29454 10.5706 1.33372 9.87676Z" fill="#0D63E8"/>
<path d="M4.48862 11.952C5.08869 11.8127 5.64575 11.5012 5.95344 10.9505C6.26739 10.3884 6.3409 9.70725 6.23446 9.07668C6.13326 8.47916 5.89895 7.88407 5.40263 7.50682C5.21656 7.36631 5.01403 7.25618 4.80256 7.16748C5.195 7.21176 5.57237 7.33339 5.90648 7.54473C7.31949 8.43985 8.49193 10.7352 7.05991 12.0001C6.89911 12.1419 6.71176 12.2697 6.50667 12.3824C6.58899 12.6369 6.76115 13.0598 7.02456 13.1991C7.02456 13.1991 6.10531 13.365 5.68633 12.7178C4.33662 13.1142 2.66927 12.9395 1.91848 11.8696C1.84459 11.764 1.77682 11.6541 1.71582 11.5405C2.51345 12.0659 3.57193 12.1646 4.48862 11.952Z" fill="#0D63E8"/>
<path d="M6.02167 9.82324C6.17437 9.82324 6.29822 9.94709 6.29822 10.0998C6.29822 10.2526 6.17437 10.3763 6.02167 10.3763C5.86886 10.3763 5.74512 10.2526 5.74512 10.0998C5.74512 9.94709 5.86886 9.82324 6.02167 9.82324Z" fill="white"/>
<path d="M4.88324 9.80469C5.08246 9.80469 5.24402 9.96625 5.24402 10.1655C5.24402 10.3647 5.08246 10.5263 4.88324 10.5263C4.6839 10.5263 4.52246 10.3647 4.52246 10.1655C4.52246 9.96625 4.6839 9.80469 4.88324 9.80469Z" fill="white"/>
<path d="M3.74457 9.87207C3.94391 9.87207 4.10535 10.0336 4.10535 10.2329C4.10535 10.4322 3.94391 10.5936 3.74457 10.5936C3.54536 10.5936 3.38379 10.4322 3.38379 10.2329C3.38379 10.0336 3.54536 9.87207 3.74457 9.87207Z" fill="white"/>
<path d="M16.8809 6.99497L18.3511 6.10791L18.4432 6.26037L16.9728 7.1475L16.8809 6.99497Z" fill="#AAAAAA"/>
<path d="M19.546 5.22119C19.6825 5.22119 19.7931 5.33186 19.7931 5.46834C19.7931 5.60486 19.6825 5.7155 19.546 5.7155C19.4095 5.7155 19.2988 5.60486 19.2988 5.46834C19.2988 5.33186 19.4095 5.22119 19.546 5.22119Z" fill="#008AB6"/>
<path d="M19.5469 5.7155C19.6833 5.71553 19.794 5.60502 19.794 5.46858V5.46834C19.7941 5.3319 19.6835 5.22126 19.5471 5.22119H19.5469V5.7155Z" fill="#008AB6"/>
<path d="M19.5476 5.30957C19.583 5.30957 19.6118 5.3383 19.6118 5.37376C19.6118 5.40919 19.583 5.43796 19.5476 5.43796C19.5122 5.43796 19.4834 5.40919 19.4834 5.37376C19.4834 5.3383 19.5122 5.30957 19.5476 5.30957Z" fill="#F8F8F8"/>
<path d="M19.4121 5.57294C19.4121 5.4984 19.4725 5.43799 19.547 5.43799C19.6216 5.43799 19.682 5.4984 19.682 5.57294" fill="white"/>
<path d="M16.2687 5.57227C17.0659 5.57227 17.7122 6.2184 17.7122 7.01564C17.7122 7.81276 17.0659 8.45902 16.2687 8.45902C15.4716 8.45902 14.8252 7.81276 14.8252 7.01564C14.8252 6.2184 15.4716 5.57227 16.2687 5.57227Z" fill="#0D63E8"/>
<path d="M16.2676 8.45902C17.0652 8.45902 17.7112 7.81199 17.7112 7.01564C17.7112 6.2193 17.0639 5.57227 16.2676 5.57227V8.45902Z" fill="#0D63E8"/>
<path d="M16.2679 5.98486C16.5044 5.98486 16.6959 6.17642 16.6959 6.41277C16.6959 6.64912 16.5044 6.84068 16.2679 6.84068C16.0315 6.84068 15.8398 6.64912 15.8398 6.41277C15.8398 6.17642 16.0315 5.98486 16.2679 5.98486Z" fill="white"/>
<path d="M15.3701 7.74124C15.3702 7.2448 15.7728 6.84241 16.2692 6.84229C16.7656 6.84241 17.168 7.2448 17.168 7.74124" fill="white"/>
</svg>
