<svg width="30" height="24" viewBox="0 0 30 24" fill="none" xmlns="http://www.w3.org/2000/svg">
<path style="mix-blend-mode:overlay" d="M23.187 23.9991H6.22852V2.93417C6.22852 2.35033 6.7014 1.87744 7.28525 1.87744H22.1302C22.7136 1.87744 23.187 2.35033 23.187 2.93417V23.9991Z" fill="url(#paint0_radial_1445_289)"/>
<path d="M6.22852 24H23.187V20.7695H6.22852V24Z" fill="#7290B5"/>
<path d="M23.187 24H6.22852V22.5649H23.187V24Z" fill="url(#paint1_linear_1445_289)"/>
<path d="M10.2804 7.05488H8.79887C8.50722 7.05488 8.27051 6.81817 8.27051 6.52651V5.04497C8.27051 4.75278 8.50722 4.5166 8.79887 4.5166H10.2804C10.5721 4.5166 10.8088 4.75278 10.8088 5.04497V6.52651C10.8088 6.81817 10.5721 7.05488 10.2804 7.05488Z" fill="#89ADDE"/>
<path d="M15.4484 7.05488H13.9668C13.6752 7.05488 13.4385 6.81817 13.4385 6.52651V5.04497C13.4385 4.75278 13.6752 4.5166 13.9668 4.5166H15.4484C15.74 4.5166 15.9768 4.75278 15.9768 5.04497V6.52651C15.9768 6.81817 15.74 7.05488 15.4484 7.05488Z" fill="#89ADDE"/>
<path d="M20.6173 7.05488H19.1358C18.8441 7.05488 18.6074 6.81817 18.6074 6.52651V5.04497C18.6074 4.75278 18.8441 4.5166 19.1358 4.5166H20.6173C20.9095 4.5166 21.1457 4.75278 21.1457 5.04497V6.52651C21.1457 6.81817 20.9095 7.05488 20.6173 7.05488Z" fill="#89ADDE"/>
<path d="M10.2804 12.5578H8.79887C8.50722 12.5578 8.27051 12.3211 8.27051 12.0294V10.5479C8.27051 10.2562 8.50722 10.0195 8.79887 10.0195H10.2804C10.5721 10.0195 10.8088 10.2562 10.8088 10.5479V12.0294C10.8088 12.3211 10.5721 12.5578 10.2804 12.5578Z" fill="#89ADDE"/>
<path d="M15.4484 12.5578H13.9668C13.6752 12.5578 13.4385 12.3211 13.4385 12.0294V10.5479C13.4385 10.2562 13.6752 10.0195 13.9668 10.0195H15.4484C15.74 10.0195 15.9768 10.2562 15.9768 10.5479V12.0294C15.9768 12.3211 15.74 12.5578 15.4484 12.5578Z" fill="#89ADDE"/>
<path d="M20.6173 12.5578H19.1358C18.8441 12.5578 18.6074 12.3211 18.6074 12.0294V10.5479C18.6074 10.2562 18.8441 10.0195 19.1358 10.0195H20.6173C20.9095 10.0195 21.1457 10.2562 21.1457 10.5479V12.0294C21.1457 12.3211 20.9095 12.5578 20.6173 12.5578Z" fill="#89ADDE"/>
<g opacity="0.976041">
<path d="M15.71 7.31175H13.7068C13.4169 7.31175 13.1816 7.07646 13.1816 6.78655V4.78448C13.1816 4.49404 13.4169 4.25928 13.7068 4.25928H15.71C16.0004 4.25928 16.2352 4.49404 16.2352 4.78448V6.78655C16.2352 7.07646 16.0004 7.31175 15.71 7.31175Z" fill="#2F71F2"/>
</g>
<g opacity="0.12993">
<path d="M20.6634 12.486H19.091C18.863 12.486 18.6787 12.3017 18.6787 12.0737V10.5021C18.6787 10.2745 18.863 10.0898 19.091 10.0898H20.6634C20.891 10.0898 21.0757 10.2745 21.0757 10.5021V12.0737C21.0757 12.3017 20.891 12.486 20.6634 12.486Z" fill="#2F71F2"/>
</g>
<g opacity="0.568521">
<path d="M10.5711 7.10834H8.77548C8.51513 7.10834 8.30469 6.89789 8.30469 6.63754V4.84287C8.30469 4.58299 8.51513 4.37207 8.77548 4.37207H10.5711C10.831 4.37207 11.0419 4.58299 11.0419 4.84287V6.63754C11.0419 6.89789 10.831 7.10834 10.5711 7.10834Z" fill="#2F71F2"/>
</g>
<path d="M17.9106 22.565H11.5078V15.6455H17.9106V22.565Z" fill="url(#paint2_linear_1445_289)"/>
<path d="M17.9095 22.565H16.7852V15.6455H17.9095V22.565Z" fill="#1855A9"/>
<path d="M14.5628 22.565H13.4385V15.6455H14.5628V22.565Z" fill="#1855A9"/>
<path d="M18.6701 16.9416H10.7456C10.5998 16.9416 10.4814 16.8227 10.4814 16.6774V15.1758C10.4814 15.03 10.5998 14.9116 10.7456 14.9116H18.6701C18.8154 14.9116 18.9343 15.03 18.9343 15.1758V16.6774C18.9343 16.8227 18.8154 16.9416 18.6701 16.9416Z" fill="#5B5B56"/>
<path d="M13.6394 1.87782H7.97852V0.264183C7.97852 0.118354 8.09687 0 8.2427 0H13.3753C13.5211 0 13.6394 0.118354 13.6394 0.264183V1.87782Z" fill="#97BAE1"/>
<path d="M29.416 22.5649H23.1865V5.78613H28.3592C28.9426 5.78613 29.416 6.25902 29.416 6.84287V22.5649Z" fill="url(#paint3_linear_1445_289)"/>
<path d="M24.1798 5.78613H23.1875V22.5649H24.1798V5.78613Z" fill="#3998F1"/>
<path d="M29.416 22.5651H23.1865V21.9966H29.416V22.5651Z" fill="#5B5B56"/>
<path d="M29.416 21.9965H23.1865V20.8838H29.416V21.9965Z" fill="#5E5E5E"/>
<path d="M27.7891 8.89393H24.8134C24.7753 8.89393 24.7441 8.86276 24.7441 8.82471V8.08342C24.7441 8.04537 24.7753 8.01367 24.8134 8.01367H27.7891C27.8272 8.01367 27.8583 8.04537 27.8583 8.08342V8.82471C27.8583 8.86276 27.8272 8.89393 27.7891 8.89393Z" fill="#DFEAF8"/>
<path d="M27.7891 10.8988H24.8134C24.7753 10.8988 24.7441 10.8676 24.7441 10.8291V10.0883C24.7441 10.0497 24.7753 10.0186 24.8134 10.0186H27.7891C27.8272 10.0186 27.8583 10.0497 27.8583 10.0883V10.8291C27.8583 10.8676 27.8272 10.8988 27.7891 10.8988Z" fill="#DFEAF8"/>
<path d="M27.7891 12.9037H24.8134C24.7753 12.9037 24.7441 12.872 24.7441 12.834V12.0932C24.7441 12.0546 24.7753 12.0234 24.8134 12.0234H27.7891C27.8272 12.0234 27.8583 12.0546 27.8583 12.0932V12.834C27.8583 12.872 27.8272 12.9037 27.7891 12.9037Z" fill="#DFEAF8"/>
<path d="M27.7891 14.9085H24.8134C24.7753 14.9085 24.7441 14.8773 24.7441 14.8393V14.099C24.7441 14.0605 24.7753 14.0293 24.8134 14.0293H27.7891C27.8272 14.0293 27.8583 14.0605 27.8583 14.099V14.8393C27.8583 14.8773 27.8272 14.9085 27.7891 14.9085Z" fill="#DFEAF8"/>
<path d="M27.7891 16.9139H24.8134C24.7753 16.9139 24.7441 16.8827 24.7441 16.8441V16.1039C24.7441 16.0658 24.7753 16.0347 24.8134 16.0347H27.7891C27.8272 16.0347 27.8583 16.0658 27.8583 16.1039V16.8441C27.8583 16.8827 27.8272 16.9139 27.7891 16.9139Z" fill="#DFEAF8"/>
<path d="M0 22.5649H6.22944V5.78613H1.05673C0.473417 5.78613 0 6.25902 0 6.84287V22.5649Z" fill="url(#paint4_linear_1445_289)"/>
<path d="M5.2373 5.78613H6.22958V22.5649H5.2373V5.78613Z" fill="#3998F1"/>
<path d="M0 22.5651H6.22944V21.9966H0V22.5651Z" fill="#5B5B56"/>
<path d="M3.63184 7.17078V8.79392C3.63184 8.83249 3.66301 8.86314 3.70158 8.86314H4.44235C4.48092 8.86314 4.51209 8.83249 4.51209 8.79392V7.17078C4.51209 7.13274 4.48092 7.10156 4.44235 7.10156H3.70158C3.66301 7.10156 3.63184 7.13274 3.63184 7.17078Z" fill="#DFEAF8"/>
<path d="M1.71777 7.17078V8.79392C1.71777 8.83249 1.74895 8.86314 1.78699 8.86314H2.52829C2.56633 8.86314 2.59803 8.83249 2.59803 8.79392V7.17078C2.59803 7.13274 2.56633 7.10156 2.52829 7.10156H1.78699C1.74895 7.10156 1.71777 7.13274 1.71777 7.17078Z" fill="#DFEAF8"/>
<path d="M3.63184 10.0868V11.7099C3.63184 11.7485 3.66301 11.7792 3.70158 11.7792H4.44235C4.48092 11.7792 4.51209 11.7485 4.51209 11.7099V10.0868C4.51209 10.0482 4.48092 10.0176 4.44235 10.0176H3.70158C3.66301 10.0176 3.63184 10.0482 3.63184 10.0868Z" fill="#DFEAF8"/>
<path d="M1.71777 10.0868V11.7099C1.71777 11.7485 1.74895 11.7792 1.78699 11.7792H2.52829C2.56633 11.7792 2.59803 11.7485 2.59803 11.7099V10.0868C2.59803 10.0482 2.56633 10.0176 2.52829 10.0176H1.78699C1.74895 10.0176 1.71777 10.0482 1.71777 10.0868Z" fill="#DFEAF8"/>
<path d="M3.63184 13.0033V14.6264C3.63184 14.6655 3.66301 14.6957 3.70158 14.6957H4.44235C4.48092 14.6957 4.51209 14.6655 4.51209 14.6264V13.0033C4.51209 12.9653 4.48092 12.9341 4.44235 12.9341H3.70158C3.66301 12.9341 3.63184 12.9653 3.63184 13.0033Z" fill="#DFEAF8"/>
<path d="M1.71777 13.0033V14.6264C1.71777 14.6655 1.74895 14.6957 1.78699 14.6957H2.52829C2.56633 14.6957 2.59803 14.6655 2.59803 14.6264V13.0033C2.59803 12.9653 2.56633 12.9341 2.52829 12.9341H1.78699C1.74895 12.9341 1.71777 12.9653 1.71777 13.0033Z" fill="#DFEAF8"/>
<path d="M4.51178 21.7748H1.71777V18.2759C1.71777 17.9837 1.95448 17.7476 2.24614 17.7476H3.98341C4.27507 17.7476 4.51178 17.9837 4.51178 18.2759V21.7748Z" fill="#196DE1"/>
<path d="M0 21.9965H6.22944V20.8838H0V21.9965Z" fill="#5E5E5E"/>
<defs>
<radialGradient id="paint0_radial_1445_289" cx="0" cy="0" r="1" gradientUnits="userSpaceOnUse" gradientTransform="translate(14.8124 2.4988) scale(20.7805 20.7805)">
<stop stop-color="white"/>
<stop offset="0.5" stop-color="#C5D1E2"/>
<stop offset="1" stop-color="#8BA3C5"/>
</radialGradient>
<linearGradient id="paint1_linear_1445_289" x1="14.6163" y1="22.4741" x2="14.6586" y2="24.1537" gradientUnits="userSpaceOnUse">
<stop stop-color="#606060"/>
<stop offset="0.5" stop-color="#494949"/>
<stop offset="1" stop-color="#323232"/>
</linearGradient>
<linearGradient id="paint2_linear_1445_289" x1="14.6516" y1="15.8701" x2="14.7747" y2="22.5248" gradientUnits="userSpaceOnUse">
<stop stop-color="#5699F3"/>
<stop offset="0.5" stop-color="#2F72CC"/>
<stop offset="1" stop-color="#094CA4"/>
</linearGradient>
<linearGradient id="paint3_linear_1445_289" x1="26.7287" y1="6.28914" x2="26.6082" y2="22.7187" gradientUnits="userSpaceOnUse">
<stop stop-color="#79B0ED"/>
<stop offset="0.5" stop-color="#539FF4"/>
<stop offset="1" stop-color="#2E8EFA"/>
</linearGradient>
<linearGradient id="paint4_linear_1445_289" x1="3.22409" y1="5.7856" x2="3.12053" y2="22.5623" gradientUnits="userSpaceOnUse">
<stop stop-color="#79B0ED"/>
<stop offset="0.5" stop-color="#539FF4"/>
<stop offset="1" stop-color="#2E8EFA"/>
</linearGradient>
</defs>
</svg>
