<svg width="24" height="24" viewBox="0 0 24 24" fill="none" xmlns="http://www.w3.org/2000/svg">
<path d="M24.0001 22.7592H0.827148V21.104H24.0001V22.7592Z" fill="#E7E7E7"/>
<rect width="21.5178" height="17.7968" transform="translate(1.65527 3.30713)" fill="white"/>
<path d="M23.1731 21.1039H1.65527V3.30713H23.1731V21.1039Z" fill="#E7E7E7"/>
<mask id="mask0_1445_641" style="mask-type:alpha" maskUnits="userSpaceOnUse" x="1" y="3" width="23" height="19">
<rect width="21.5178" height="17.7968" transform="translate(1.65527 3.30713)" fill="white"/>
<path d="M23.1731 21.1039H1.65527V3.30713H23.1731V21.1039Z" fill="#E7E7E7"/>
</mask>
<g mask="url(#mask0_1445_641)">
<path d="M23.1732 3.30957V6.39864C22.9301 6.53933 22.6472 6.62002 22.3461 6.62002H22.3451C21.4311 6.62002 20.6904 5.87931 20.6904 4.96531C20.6904 5.87931 19.9497 6.62002 19.0357 6.62002H19.0346C18.1206 6.62002 17.3799 5.87931 17.3799 4.96531C17.3799 5.87931 16.6392 6.62002 15.7252 6.62002H15.7242C14.8102 6.62002 14.0695 5.87931 14.0695 4.96531C14.0695 5.87931 13.3288 6.62002 12.4148 6.62002H12.4137C11.4997 6.62002 10.759 5.87931 10.759 4.96531C10.759 5.87931 10.0183 6.62002 9.10431 6.62002H9.10327C8.18928 6.62002 7.44857 5.87931 7.44857 4.96531C7.44857 5.87931 6.70785 6.62002 5.79386 6.62002H5.79282C4.87883 6.62002 4.13811 5.87931 4.13811 4.96531C4.13811 5.87931 3.3974 6.62002 2.4834 6.62002H2.48237C2.18132 6.62002 1.89838 6.53933 1.65527 6.39864V3.30957H23.1732Z" fill="#D1D1D1"/>
</g>
<path d="M21.5179 21.105H3.31055V7.44092H21.5179V21.105Z" fill="#ACDCFF"/>
<path d="M14.0692 3.30732H10.7588V0H14.0692V3.30732Z" fill="#F0A643"/>
<path d="M14.0692 3.30713H10.7588V4.13318C10.7588 5.04691 11.4995 5.78767 12.4132 5.78767H12.4148C13.3285 5.78767 14.0692 5.04691 14.0692 4.13318V3.30713Z" fill="#DD9640"/>
<path d="M7.44912 3.30735H4.13867L4.96628 0H7.86293L7.44912 3.30735Z" fill="#F0A643"/>
<path d="M7.44912 3.30762H4.13867V4.13368C4.13867 5.04741 4.87938 5.78818 5.79312 5.78818H5.79467C6.70841 5.78818 7.44912 5.04741 7.44912 4.13368V3.30762Z" fill="#DD9640"/>
<path d="M20.6901 3.30732H17.3796L16.9658 0H19.8625L20.6901 3.30732Z" fill="#F0A643"/>
<path d="M20.6903 3.30713H17.3799V4.13318C17.3799 5.04691 18.1206 5.78767 19.0343 5.78767H19.0359C19.9496 5.78767 20.6903 5.04691 20.6903 4.13318V3.30713Z" fill="#DD9640"/>
<path d="M10.7587 3.30734H7.44824L7.86205 0H10.7587V3.30734Z" fill="#6DA4D7"/>
<path d="M10.7587 3.30713H7.44824V4.13319C7.44824 5.04692 8.18896 5.78768 9.10269 5.78768H9.10424C10.018 5.78768 10.7587 5.04692 10.7587 4.13319V3.30713Z" fill="#6093BA"/>
<path d="M4.13857 3.30732H0.828125L2.06954 0H4.96619L4.13857 3.30732Z" fill="#6DA4D7"/>
<path d="M4.13857 3.30713H0.828125V4.13318C0.828125 5.04691 1.56884 5.78767 2.48257 5.78767H2.48413C3.39786 5.78767 4.13857 5.04691 4.13857 4.13318V3.30713Z" fill="#6093BA"/>
<path d="M17.3798 3.30732H14.0693V0H16.966L17.3798 3.30732Z" fill="#6DA4D7"/>
<path d="M17.3798 3.30713H14.0693V4.13318C14.0693 5.04691 14.81 5.78767 15.7238 5.78767H15.7253C16.6391 5.78767 17.3798 5.04691 17.3798 4.13318V3.30713Z" fill="#6093BA"/>
<path d="M24.0013 3.30732H20.6909L19.8633 0H22.7599L24.0013 3.30732Z" fill="#6DA4D7"/>
<path d="M24.0009 3.30713H20.6904V4.13318C20.6904 5.04691 21.4311 5.78767 22.3449 5.78767H22.3464C23.2602 5.78767 24.0009 5.04691 24.0009 4.13318V3.30713Z" fill="#6093BA"/>
<path d="M21.5179 10.3346H3.31055V9.50781H21.5179V10.3346Z" fill="#E7E7E7"/>
<path d="M7.03471 23.9998H1.24142C0.555794 23.9998 0 23.444 0 22.7584V10.758C0 10.0724 0.555794 9.5166 1.24142 9.5166H7.03471C7.72034 9.5166 8.27613 10.0724 8.27613 10.758V22.7584C8.27613 23.444 7.72034 23.9998 7.03471 23.9998Z" fill="#E7E7E7"/>
<path d="M2.89721 10.3442H5.38004L5.79385 9.5166H2.4834L2.89721 10.3442Z" fill="#D1D1D1"/>
<path d="M6.64928 13.6825H4.93848V11.9717H6.64928V13.6825Z" fill="#D1D1D1"/>
<path d="M3.3105 13.6547H1.65527V11.9995H3.3105V13.6547Z" fill="#D1D1D1"/>
<path d="M3.40467 17.059H1.5625V15.2168H3.40467V17.059Z" fill="#D1D1D1"/>
<path d="M2.59122 19.5566H2.37402V19.3394H2.59122V19.5566Z" fill="#D1D1D1"/>
<path d="M5.79703 19.4518H5.79004V19.4448H5.79703V19.4518Z" fill="#D1D1D1"/>
<path d="M6.23167 16.5769H5.35352V15.6987H6.23167V16.5769Z" fill="#D1D1D1"/>
</svg>
