<svg width="21" height="24" viewBox="0 0 21 24" fill="none" xmlns="http://www.w3.org/2000/svg">
<path d="M18.7062 18.1483C18.7062 18.3657 18.5301 18.5418 18.3128 18.5418H3.52431C3.30698 18.5418 3.13086 18.3657 3.13086 18.1483C3.13086 17.931 3.30698 17.7549 3.52431 17.7549H18.3128C18.5301 17.7549 18.7062 17.931 18.7062 18.1483Z" fill="#E2EDED"/>
<path d="M5.38562 7.54664C5.76066 7.27466 6.28533 7.35824 6.55731 7.73329C6.8293 8.10834 6.74572 8.63301 6.37068 8.90499C5.99563 9.17698 5.47097 9.0934 5.19899 8.71835C4.92701 8.34331 5.01057 7.81863 5.38562 7.54664ZM4.31381 8.95785L4.69633 9.48532L4.86559 9.36257C5.00213 9.48433 5.15732 9.57862 5.32253 9.64315L5.28961 9.84974L5.93301 9.95223L5.96593 9.74564C6.14302 9.73563 6.31972 9.69483 6.48767 9.62126L6.60991 9.78982L7.13737 9.4073L7.01462 9.23804C7.13639 9.1015 7.23068 8.94631 7.2952 8.78109L7.50179 8.81401L7.60428 8.1706L7.39769 8.13768C7.38769 7.9606 7.34687 7.78388 7.27331 7.61592L7.44257 7.49317L7.06006 6.96572L6.89115 7.08822C6.75436 6.9661 6.59907 6.87241 6.43386 6.80788L6.46678 6.60129L5.82338 6.49881L5.79046 6.7054C5.61337 6.7154 5.43666 6.75621 5.26871 6.82978L5.14621 6.66086L4.61876 7.04337L4.74151 7.21264C4.61974 7.34917 4.52545 7.50436 4.46118 7.66993L4.2546 7.63703L4.15211 8.28043L4.3587 8.31335C4.3687 8.49044 4.40951 8.66714 4.48307 8.8351L4.31381 8.95785Z" fill="#DCDAEF"/>
<path d="M12.6127 17.6608H9.22656L9.66339 16.3091H12.1759L12.6127 17.6608Z" fill="#068FBF"/>
<path d="M12.9724 17.6611V18.0542H8.86523V17.6611H12.9724Z" fill="#0B97D5"/>
<path d="M17.977 8.71915V16.5273C17.977 16.5496 17.9588 16.5678 17.9365 16.5678H3.90177C3.87945 16.5678 3.86133 16.5496 3.86133 16.5273V8.71915C3.86133 8.69683 3.87945 8.67871 3.90177 8.67871H17.9365C17.9588 8.67871 17.977 8.69683 17.977 8.71915Z" fill="#0B97D5"/>
<path d="M17.4742 9.21191V15.4308H4.36328V9.21191H17.4742Z" fill="#FBFBFB"/>
<path d="M11.2021 16.0429C11.2021 16.2 11.075 16.3271 10.9179 16.3271C10.7609 16.3271 10.6338 16.2 10.6338 16.0429C10.6338 15.8859 10.7609 15.7588 10.9179 15.7588C11.075 15.7588 11.2021 15.8859 11.2021 16.0429Z" fill="#0888B5"/>
<path d="M10.7744 10.0391V15.2958H2.32715V10.0391H10.7744Z" fill="#DCDAEF"/>
<path d="M10.7744 10.0391V10.5661H2.32715V10.0391H10.7744Z" fill="#C9C7E5"/>
<path d="M2.82259 10.2985C2.82259 10.3579 2.77443 10.4061 2.715 10.4061C2.65558 10.4061 2.60742 10.3579 2.60742 10.2985C2.60742 10.2391 2.65558 10.1909 2.715 10.1909C2.77443 10.1909 2.82259 10.2391 2.82259 10.2985Z" fill="#F46B2F"/>
<path d="M3.22493 10.2985C3.22493 10.3579 3.17678 10.4061 3.11735 10.4061C3.05792 10.4061 3.00977 10.3579 3.00977 10.2985C3.00977 10.2391 3.05792 10.1909 3.11735 10.1909C3.17678 10.1909 3.22493 10.2391 3.22493 10.2985Z" fill="#FCE790"/>
<path d="M3.62923 10.2985C3.62923 10.3579 3.58107 10.4061 3.52165 10.4061C3.46222 10.4061 3.41406 10.3579 3.41406 10.2985C3.41406 10.2391 3.46222 10.1909 3.52165 10.1909C3.58107 10.1909 3.62923 10.2391 3.62923 10.2985Z" fill="#29AA75"/>
<path d="M10.1504 10.8223V12.6156H2.95117V10.8223H10.1504Z" fill="#FAAF16"/>
<mask id="mask0_1445_730" style="mask-type:luminance" maskUnits="userSpaceOnUse" x="0" y="2" width="21" height="21">
<path d="M0.879883 2.74854H20.9663V22.8351H0.879883V2.74854Z" fill="white"/>
</mask>
<g mask="url(#mask0_1445_730)">
<mask id="mask1_1445_730" style="mask-type:luminance" maskUnits="userSpaceOnUse" x="2" y="12" width="3" height="2">
<path d="M4.62949 12.7915H2.88867V13.8226H4.62949V12.7915Z" fill="white"/>
</mask>
<g mask="url(#mask1_1445_730)">
<path d="M4.58441 12.8257V13.7531H2.95117V12.8257H4.58441Z" fill="#5DD8DD"/>
<path d="M3.11705 12.9432C3.54347 13.1853 3.96946 13.4274 4.39588 13.6694C4.41801 13.682 4.43796 13.6477 4.41584 13.6351C3.98942 13.3931 3.56344 13.151 3.13702 12.909C3.1149 12.8964 3.09493 12.9307 3.11705 12.9432Z" fill="#3ACCCC"/>
<path d="M4.39588 12.9095C3.96946 13.1515 3.54347 13.3936 3.11705 13.6356C3.09493 13.6482 3.1149 13.6825 3.13702 13.6699C3.56344 13.4279 3.98942 13.1858 4.41584 12.9437C4.43796 12.9312 4.41801 12.8969 4.39588 12.9095Z" fill="#3ACCCC"/>
</g>
</g>
<mask id="mask2_1445_730" style="mask-type:luminance" maskUnits="userSpaceOnUse" x="0" y="3" width="21" height="21">
<path d="M0.879883 3.91357H20.9663V24.0002H0.879883V3.91357Z" fill="white"/>
</mask>
<g mask="url(#mask2_1445_730)">
<mask id="mask3_1445_730" style="mask-type:luminance" maskUnits="userSpaceOnUse" x="2" y="13" width="3" height="2">
<path d="M4.62949 13.9565H2.88867V14.9877H4.62949V13.9565Z" fill="white"/>
</mask>
<g mask="url(#mask3_1445_730)">
<path d="M4.58441 13.9907V14.9182H2.95117V13.9907H4.58441Z" fill="#5DD8DD"/>
<path d="M3.11705 14.1083C3.54347 14.3503 3.96946 14.5924 4.39588 14.8345C4.41801 14.847 4.43796 14.8128 4.41584 14.8002C3.98942 14.5581 3.56344 14.3161 3.13702 14.074C3.1149 14.0614 3.09493 14.0957 3.11705 14.1083Z" fill="#3ACCCC"/>
<path d="M4.39588 14.0745C3.96946 14.3166 3.54347 14.5586 3.11705 14.8007C3.09493 14.8133 3.1149 14.8475 3.13702 14.835C3.56344 14.5929 3.98942 14.3508 4.41584 14.1088C4.43796 14.0962 4.41801 14.0619 4.39588 14.0745Z" fill="#3ACCCC"/>
</g>
</g>
<mask id="mask4_1445_730" style="mask-type:luminance" maskUnits="userSpaceOnUse" x="0" y="2" width="21" height="21">
<path d="M0.879883 2.74854H20.9663V22.8351H0.879883V2.74854Z" fill="white"/>
</mask>
<g mask="url(#mask4_1445_730)">
<mask id="mask5_1445_730" style="mask-type:luminance" maskUnits="userSpaceOnUse" x="4" y="13" width="3" height="2">
<path d="M6.47756 13.9302H4.70996V14.9881H6.47756V13.9302Z" fill="white"/>
</mask>
<g mask="url(#mask5_1445_730)">
<path d="M6.41058 13.9951V14.9226H4.77734V13.9951H6.41058Z" fill="#5DD8DD"/>
<path d="M6.24396 14.1132C5.81754 14.3552 5.39156 14.5973 4.96514 14.8394C4.94302 14.8519 4.92305 14.8176 4.94518 14.8051C5.3716 14.563 5.79759 14.321 6.22401 14.0789C6.24613 14.0663 6.26608 14.1006 6.24396 14.1132Z" fill="#3ACCCC"/>
<path d="M4.96514 14.0789C5.39156 14.321 5.81754 14.563 6.24396 14.8051C6.26608 14.8176 6.24613 14.8519 6.22401 14.8394C5.79759 14.5973 5.3716 14.3552 4.94518 14.1132C4.92305 14.1006 4.94302 14.0663 4.96514 14.0789Z" fill="#3ACCCC"/>
</g>
</g>
<mask id="mask6_1445_730" style="mask-type:luminance" maskUnits="userSpaceOnUse" x="0" y="1" width="21" height="21">
<path d="M0.879883 1.57031H20.9662V21.6569H0.879883V1.57031Z" fill="white"/>
</mask>
<g mask="url(#mask6_1445_730)">
<mask id="mask7_1445_730" style="mask-type:luminance" maskUnits="userSpaceOnUse" x="4" y="12" width="3" height="2">
<path d="M6.47756 12.7515H4.70996V13.8094H6.47756V12.7515Z" fill="white"/>
</mask>
<g mask="url(#mask7_1445_730)">
<path d="M6.41057 12.8169V13.7444H4.77734V12.8169H6.41057Z" fill="#5DD8DD"/>
<path d="M6.24396 12.9349C5.81754 13.177 5.39156 13.4191 4.96514 13.6611C4.94302 13.6737 4.92305 13.6394 4.94518 13.6268C5.3716 13.3848 5.79759 13.1427 6.224 12.9007C6.24613 12.8881 6.26608 12.9224 6.24396 12.9349Z" fill="#3ACCCC"/>
<path d="M4.96514 12.9007C5.39156 13.1427 5.81754 13.3848 6.24396 13.6268C6.26608 13.6394 6.24613 13.6737 6.224 13.6611C5.79759 13.4191 5.3716 13.177 4.94518 12.9349C4.92305 12.9224 4.94302 12.8881 4.96514 12.9007Z" fill="#3ACCCC"/>
</g>
</g>
<mask id="mask8_1445_730" style="mask-type:luminance" maskUnits="userSpaceOnUse" x="0" y="2" width="21" height="21">
<path d="M0.879883 2.74854H20.9663V22.8351H0.879883V2.74854Z" fill="white"/>
</mask>
<g mask="url(#mask8_1445_730)">
<mask id="mask9_1445_730" style="mask-type:luminance" maskUnits="userSpaceOnUse" x="6" y="12" width="5" height="4">
<path d="M10.1983 12.7515H6.56934V15.0279H10.1983V12.7515Z" fill="white"/>
</mask>
<g mask="url(#mask9_1445_730)">
<path d="M10.1466 14.1904V14.2746H6.67578V14.1904H10.1466Z" fill="#B5B4D8"/>
<path d="M10.1466 14.4424V14.5265H6.67578V14.4424H10.1466Z" fill="#B5B4D8"/>
<path d="M10.1466 14.6943V14.7785H6.67578V14.6943H10.1466Z" fill="#B5B4D8"/>
<path d="M10.1466 14.9458V15.03H6.67578V14.9458H10.1466Z" fill="#B5B4D8"/>
<path d="M10.1466 12.9214V13.0055H6.67578V12.9214H10.1466Z" fill="#B5B4D8"/>
<path d="M10.1466 13.1729V13.257H6.67578V13.1729H10.1466Z" fill="#B5B4D8"/>
<path d="M10.1466 13.4243V13.5085H6.67578V13.4243H10.1466Z" fill="#B5B4D8"/>
<path d="M10.1466 13.6763V13.7604H6.67578V13.6763H10.1466Z" fill="#B5B4D8"/>
<path d="M10.1466 13.9282V14.0124H6.67578V13.9282H10.1466Z" fill="#B5B4D8"/>
<path d="M10.1466 12.6699V12.7541H6.67578V12.6699H10.1466Z" fill="#B5B4D8"/>
</g>
</g>
<path d="M6.0124 12.3421C6.0124 12.3794 5.98247 12.4094 5.94517 12.4094C5.90786 12.4094 5.87793 12.3794 5.87793 12.3421C5.87793 12.3048 5.90786 12.2749 5.94517 12.2749C5.98247 12.2749 6.0124 12.3048 6.0124 12.3421Z" fill="#D68A05"/>
<path d="M6.41474 12.3421C6.41474 12.3794 6.38482 12.4094 6.34751 12.4094C6.3102 12.4094 6.28027 12.3794 6.28027 12.3421C6.28027 12.3048 6.3102 12.2749 6.34751 12.2749C6.38482 12.2749 6.41474 12.3048 6.41474 12.3421Z" fill="#D68A05"/>
<path d="M6.81904 12.3421C6.81904 12.3794 6.78911 12.4094 6.75181 12.4094C6.7145 12.4094 6.68457 12.3794 6.68457 12.3421C6.68457 12.3048 6.7145 12.2749 6.75181 12.2749C6.78911 12.2749 6.81904 12.3048 6.81904 12.3421Z" fill="#D68A05"/>
<path d="M7.22236 12.3421C7.22236 12.3794 7.19243 12.4094 7.15513 12.4094C7.11782 12.4094 7.08789 12.3794 7.08789 12.3421C7.08789 12.3048 7.11782 12.2749 7.15513 12.2749C7.19243 12.2749 7.22236 12.3048 7.22236 12.3421Z" fill="#D68A05"/>
<path d="M3.32369 11.3433V12.0959H2.9541V11.3433H3.32369Z" fill="#D68A05"/>
<path d="M3.21737 11.857V11.5815L3.0625 11.7225L3.21737 11.857Z" fill="#FAAF16"/>
<path d="M10.1489 11.3433V12.0959H9.7793V11.3433H10.1489Z" fill="#D68A05"/>
<path d="M9.8877 11.857V11.5815L10.0421 11.7225L9.8877 11.857Z" fill="#FAAF16"/>
<path d="M17.1731 12.906L19.6418 17.1819L18.6357 17.7628L16.167 13.4868L17.1731 12.906Z" fill="#F5F7F6"/>
<path d="M19.2376 16.4847L19.4393 16.8342L18.4331 17.4148L18.2314 17.0654L19.2376 16.4847Z" fill="#5DD8DD"/>
<path d="M18.9233 15.9395L19.1249 16.289L18.1186 16.8695L17.917 16.52L18.9233 15.9395Z" fill="#76E2E2"/>
<path d="M18.6098 15.3936L18.8114 15.7431L17.8051 16.3236L17.6035 15.9741L18.6098 15.3936Z" fill="#91E5E5"/>
<path d="M18.2952 14.848L18.4969 15.1974L17.4907 15.7781L17.2891 15.4287L18.2952 14.848Z" fill="#A3E5E5"/>
<path d="M17.9785 14.3031L18.1804 14.6524L17.1745 15.2336L16.9727 14.8843L17.9785 14.3031Z" fill="#B8E8E8"/>
<path d="M17.6654 13.7603L17.867 14.1098L16.8608 14.6903L16.6592 14.3408L17.6654 13.7603Z" fill="#C6E5E5"/>
<path d="M17.3499 13.2138L17.5516 13.5632L16.5454 14.1439L16.3438 13.7944L17.3499 13.2138Z" fill="#DFEDED"/>
<path d="M15.5448 14.0366L19.488 17.008L18.7889 17.9358L14.8457 14.9644L15.5448 14.0366Z" fill="white"/>
<path d="M18.8427 16.5214L19.1649 16.7642L18.4657 17.692L18.1436 17.4492L18.8427 16.5214Z" fill="#B5B4D8"/>
<path d="M18.3399 16.1436L18.6621 16.3865L17.9628 17.3141L17.6406 17.0713L18.3399 16.1436Z" fill="#C1C1E5"/>
<path d="M17.8386 15.7654L18.1609 16.0082L17.4619 16.9361L17.1396 16.6934L17.8386 15.7654Z" fill="#C5C5ED"/>
<path d="M17.3357 15.3865L17.6579 15.6293L16.959 16.5572L16.6367 16.3145L17.3357 15.3865Z" fill="#CACAEF"/>
<path d="M16.8332 15.0061L17.1553 15.249L16.4559 16.1765L16.1338 15.9336L16.8332 15.0061Z" fill="#CACAEF"/>
<path d="M16.3305 14.6282L16.6525 14.8712L15.9529 15.7986L15.6309 15.5557L16.3305 14.6282Z" fill="#CBCBF4"/>
<path d="M15.8282 14.2481L16.1503 14.491L15.4511 15.4186L15.1289 15.1758L15.8282 14.2481Z" fill="#DCDCFF"/>
<path d="M14.5194 15.6328L19.2886 16.9107L18.9879 18.0328L14.2188 16.7549L14.5194 15.6328Z" fill="#F5F7F6"/>
<path d="M18.5077 16.7011L18.8974 16.8055L18.5967 17.9277L18.207 17.8232L18.5077 16.7011Z" fill="#FAAF16"/>
<path d="M17.9003 16.538L18.29 16.6424L17.9893 17.7646L17.5996 17.6602L17.9003 16.538Z" fill="#FFBA40"/>
<path d="M17.2929 16.3754L17.6825 16.4798L17.3819 17.602L16.9922 17.4976L17.2929 16.3754Z" fill="#FCC665"/>
<path d="M16.685 16.2122L17.0748 16.3165L16.7745 17.4388L16.3848 17.3345L16.685 16.2122Z" fill="#F9D38F"/>
<path d="M16.0765 16.0486L16.4662 16.1528L16.1661 17.2751L15.7764 17.1709L16.0765 16.0486Z" fill="#FCDCA4"/>
<path d="M15.4696 15.8867L15.8593 15.9911L15.5586 17.1132L15.1689 17.0088L15.4696 15.8867Z" fill="#FFEAC5"/>
<path d="M14.8614 15.7236L15.2511 15.8281L14.9502 16.9502L14.5605 16.8457L14.8614 15.7236Z" fill="#F9EBD4"/>
<path d="M13.9951 17.5918C13.9951 17.8473 14.2042 18.0564 14.4593 18.0564H19.0358C19.2913 18.0564 19.4999 17.8473 19.4999 17.5918V17.2825C19.4999 17.0274 19.2913 16.8184 19.0358 16.8184H14.4593C14.2038 16.8184 13.9951 17.0274 13.9951 17.2825V17.5918Z" fill="#DCDCFF"/>
<path d="M19.041 17.127C19.041 17.1869 19.0896 17.2354 19.1495 17.2354C19.2093 17.2354 19.2584 17.1869 19.2584 17.127C19.2584 17.0672 19.2098 17.0186 19.1495 17.0186C19.0892 17.0186 19.041 17.0672 19.041 17.127Z" fill="#3A5799"/>
<path d="M18.7804 17.1421C18.7804 17.1954 18.737 17.2393 18.6832 17.2393H16.4761C16.4223 17.2393 16.3789 17.1959 16.3789 17.1421C16.3789 17.0883 16.4223 17.0449 16.4761 17.0449H18.6832C18.737 17.0449 18.7804 17.0883 18.7804 17.1421Z" fill="#B5B4D8"/>
<path d="M18.781 17.5093C18.781 17.5626 18.7376 17.606 18.6838 17.606H17.5269C17.4735 17.606 17.4297 17.5626 17.4297 17.5093C17.4297 17.4555 17.4731 17.4121 17.5269 17.4121H18.6838C18.7376 17.4121 18.781 17.4555 18.781 17.5093Z" fill="#B5B4D8"/>
<mask id="mask10_1445_730" style="mask-type:luminance" maskUnits="userSpaceOnUse" x="0" y="0" width="21" height="21">
<path d="M0 0H20.0864V20.0866H0V0Z" fill="white"/>
</mask>
<g mask="url(#mask10_1445_730)">
<mask id="mask11_1445_730" style="mask-type:luminance" maskUnits="userSpaceOnUse" x="6" y="3" width="5" height="5">
<path d="M10.6073 3.81641H6.83105V7.03026H10.6073V3.81641Z" fill="white"/>
</mask>
<g mask="url(#mask11_1445_730)">
<path d="M9.60996 3.9502H7.8145C7.30349 3.9502 6.88574 4.36839 6.88574 4.87896V5.12015C6.88574 5.63116 7.30393 6.04934 7.8145 6.04934H8.45L9.31542 7.00673V6.04934H9.60953C10.1205 6.04934 10.5387 5.63116 10.5387 5.12015V4.87896C10.5387 4.36794 10.1205 3.9502 9.60953 3.9502C9.60953 3.9502 10.121 3.9502 9.60996 3.9502Z" fill="#5DD8DD"/>
<path d="M9.93207 4.57861V4.71483H7.71582V4.57861H9.93207Z" fill="#2AB5B1"/>
<path d="M9.93207 4.96729V5.1035H7.71582V4.96729H9.93207Z" fill="#2AB5B1"/>
<path d="M9.48959 5.35547V5.49168H7.71582V5.35547H9.48959Z" fill="#2AB5B1"/>
<path d="M7.57506 4.82205L7.39764 4.64332L7.57549 4.4646C7.58459 4.45333 7.58461 4.43684 7.57506 4.42512C7.56508 4.41515 7.54686 4.41472 7.53558 4.42512L7.33951 4.62381L7.33735 4.62598C7.33735 4.62598 7.33475 4.62945 7.33388 4.63161L7.33301 4.63421C7.33301 4.63421 7.33214 4.63681 7.33171 4.63855C7.33084 4.64159 7.33084 4.64463 7.33171 4.64723C7.33171 4.64853 7.33169 4.64984 7.33256 4.65114C7.33256 4.65201 7.33256 4.65287 7.33343 4.65374V4.65591L7.33605 4.65808C7.33735 4.65982 7.33864 4.66154 7.34038 4.66328L7.53601 4.86023C7.54165 4.86586 7.5486 4.8689 7.55554 4.8689C7.56379 4.8689 7.57116 4.86544 7.57593 4.86023C7.58548 4.84982 7.58548 4.8329 7.57593 4.82205C7.57593 4.82205 7.58461 4.8329 7.57506 4.82205Z" fill="#FBFBFB"/>
<path d="M9.61739 5.60232L9.79482 5.42359L9.61696 5.24487C9.60786 5.2336 9.60785 5.21711 9.61739 5.2054C9.62737 5.19542 9.64559 5.19499 9.65687 5.2054L9.85295 5.40408L9.85512 5.40625C9.85512 5.40625 9.85772 5.40972 9.85859 5.41189L9.85946 5.41449C9.85946 5.41449 9.86033 5.41708 9.86076 5.41882C9.86163 5.42186 9.86163 5.42489 9.86076 5.42793C9.86076 5.42923 9.86076 5.43054 9.85989 5.43184C9.85989 5.43271 9.85989 5.43357 9.85902 5.43444V5.43661L9.85642 5.43878C9.85512 5.44052 9.85382 5.44225 9.85208 5.44399L9.65644 5.64093C9.6508 5.64657 9.64385 5.64961 9.63692 5.64961C9.62868 5.64961 9.6213 5.64614 9.61654 5.64093C9.60699 5.63052 9.60699 5.6136 9.61654 5.60275C9.61654 5.60275 9.60785 5.61317 9.61739 5.60232Z" fill="#FBFBFB"/>
</g>
</g>
<path d="M19.5117 5.875V10.5149H12.0557V5.875H19.5117Z" fill="#DCDAEF"/>
<path d="M19.5117 5.875V6.34046H12.0557V5.875H19.5117Z" fill="#C9C7E5"/>
<path d="M12.4918 6.10427C12.4918 6.15677 12.4492 6.19928 12.3968 6.19928C12.3443 6.19928 12.3018 6.15677 12.3018 6.10427C12.3018 6.05178 12.3443 6.00928 12.3968 6.00928C12.4492 6.00928 12.4918 6.05178 12.4918 6.10427Z" fill="#F46B2F"/>
<path d="M12.8482 6.10427C12.8482 6.15677 12.8057 6.19928 12.7532 6.19928C12.7007 6.19928 12.6582 6.15677 12.6582 6.10427C12.6582 6.05178 12.7007 6.00928 12.7532 6.00928C12.8057 6.00928 12.8482 6.05178 12.8482 6.10427Z" fill="#FCE790"/>
<path d="M13.2047 6.10427C13.2047 6.15677 13.1621 6.19928 13.1096 6.19928C13.0572 6.19928 13.0146 6.15677 13.0146 6.10427C13.0146 6.05178 13.0572 6.00928 13.1096 6.00928C13.1621 6.00928 13.2047 6.05178 13.2047 6.10427Z" fill="#29AA75"/>
<mask id="mask12_1445_730" style="mask-type:luminance" maskUnits="userSpaceOnUse" x="0" y="1" width="21" height="21">
<path d="M0.879883 1.88525H20.9663V21.9719H0.879883V1.88525Z" fill="white"/>
</mask>
<g mask="url(#mask12_1445_730)">
<mask id="mask13_1445_730" style="mask-type:luminance" maskUnits="userSpaceOnUse" x="12" y="6" width="8" height="5">
<path d="M19.5207 6.34473H12.1289V10.4558H19.5207V6.34473Z" fill="white"/>
</mask>
<g mask="url(#mask13_1445_730)">
<path d="M13.4797 9.01172V9.1527H12.7236V9.01172H13.4797Z" fill="#B5B4D8"/>
<path d="M13.884 9.25391V9.39489H13.1279V9.25391H13.884Z" fill="#B5B4D8"/>
<path d="M14.2854 9.49609V9.63707H13.5293V9.49609H14.2854Z" fill="#B5B4D8"/>
<path d="M17.1098 9.49609V9.63707H14.458V9.49609H17.1098Z" fill="#FAAF16"/>
<path d="M18.0374 9.49609V9.63707H17.2812V9.49609H18.0374Z" fill="#B5B4D8"/>
<path d="M14.2854 9.73779V9.87877H13.5293V9.73779H14.2854Z" fill="#B5B4D8"/>
<path d="M17.9162 9.73779V9.87877H14.458V9.73779H17.9162Z" fill="#5DD8DD"/>
<path d="M18.844 9.73779V9.87877H18.0879V9.73779H18.844Z" fill="#B5B4D8"/>
<path d="M13.884 9.97998V10.121H13.1279V9.97998H13.884Z" fill="#B5B4D8"/>
<path d="M13.884 10.2217V10.3627H13.1279V10.2217H13.884Z" fill="#B5B4D8"/>
<path d="M13.884 6.29785V6.43883H13.1279V6.29785H13.884Z" fill="#B5B4D8"/>
<path d="M13.993 6.54004V6.68102H13.5293V6.54004H13.993Z" fill="#B5B4D8"/>
<path d="M14.3766 6.78223V6.92321H13.7715V6.78223H14.3766Z" fill="#B5B4D8"/>
<path d="M16.626 6.78223V6.92321H14.5391V6.78223H16.626Z" fill="#FAAF16"/>
<path d="M17.401 6.78223V6.92321H16.7959V6.78223H17.401Z" fill="#B5B4D8"/>
<path d="M13.993 7.02441V7.1654H13.5293V7.02441H13.993Z" fill="#B5B4D8"/>
<path d="M13.993 7.26611V7.40709H13.5293V7.26611H13.993Z" fill="#B5B4D8"/>
<path d="M14.3766 7.5083V7.64928H13.7715V7.5083H14.3766Z" fill="#B5B4D8"/>
<path d="M17.0295 7.5083V7.64928H14.5391V7.5083H17.0295Z" fill="#5DD8DD"/>
<path d="M17.8063 7.5083V7.64928H17.2012V7.5083H17.8063Z" fill="#B5B4D8"/>
<path d="M14.3766 7.75V7.89098H13.7715V7.75H14.3766Z" fill="#B5B4D8"/>
<path d="M17.0295 7.75V7.89098H14.5391V7.75H17.0295Z" fill="#5DD8DD"/>
<path d="M17.8063 7.75V7.89098H17.2012V7.75H17.8063Z" fill="#B5B4D8"/>
<path d="M14.3766 7.99219V8.13317H13.7715V7.99219H14.3766Z" fill="#B5B4D8"/>
<path d="M17.0295 7.99219V8.13317H14.5391V7.99219H17.0295Z" fill="#5DD8DD"/>
<path d="M17.8063 7.99219V8.13317H17.2012V7.99219H17.8063Z" fill="#B5B4D8"/>
<path d="M14.3766 8.23389V8.37487H13.7715V8.23389H14.3766Z" fill="#B5B4D8"/>
<path d="M17.0295 8.23389V8.37487H14.5391V8.23389H17.0295Z" fill="#5DD8DD"/>
<path d="M17.8063 8.23389V8.37487H17.2012V8.23389H17.8063Z" fill="#B5B4D8"/>
<path d="M13.993 8.47607V8.61706H13.5293V8.47607H13.993Z" fill="#B5B4D8"/>
</g>
</g>
<path d="M15.6047 11.4478C15.7778 11.5733 15.8163 11.815 15.6908 11.9882C15.5652 12.1613 15.3235 12.1998 15.1504 12.0743C14.9772 11.9487 14.9387 11.707 15.0643 11.5338C15.1898 11.3607 15.4316 11.3222 15.6047 11.4478ZM14.6806 11.0188L14.4553 11.3296L14.555 11.4019C14.5117 11.5007 14.4876 11.6049 14.4816 11.7093L14.3598 11.7287L14.4202 12.1079L14.542 12.0885C14.5802 12.1859 14.6354 12.2774 14.7073 12.3579L14.6349 12.4576L14.9457 12.683L15.0181 12.5833C15.1169 12.6266 15.2211 12.6507 15.3254 12.6567L15.3448 12.7785L15.7241 12.7181L15.7047 12.5963C15.802 12.5581 15.8936 12.5028 15.9741 12.431L16.0738 12.5033L16.2992 12.1926L16.1995 12.1202C16.2427 12.0214 16.2668 11.9172 16.2729 11.8128L16.3946 11.7934L16.3342 11.4142L16.2125 11.4336C16.1743 11.3362 16.119 11.2447 16.0472 11.1642L16.1195 11.0645L15.8087 10.8391L15.7364 10.9388C15.6376 10.8955 15.5334 10.8714 15.429 10.8654L15.4096 10.7436L15.0303 10.804L15.0497 10.9258C14.9524 10.964 14.8609 11.0193 14.7804 11.0911L14.6806 11.0188Z" fill="#FAAF16"/>
<path d="M12.4924 12.8338C12.8584 12.5684 13.3703 12.65 13.6357 13.0159C13.901 13.3818 13.8195 13.8938 13.4536 14.1591C13.0876 14.4245 12.5757 14.3429 12.3103 13.977C12.045 13.6111 12.1265 13.0992 12.4924 12.8338ZM11.4465 14.2112L11.8199 14.7261L11.9849 14.6064C12.1185 14.7255 12.2694 14.8169 12.4309 14.8799L12.3987 15.0817L13.0264 15.1816L13.0585 14.9799C13.2315 14.9702 13.4038 14.9299 13.5674 14.8584L13.6871 15.0235L14.2019 14.6501L14.0822 14.4851C14.2013 14.3515 14.2927 14.2006 14.3557 14.0391L14.5575 14.0713L14.6575 13.4436L14.4557 13.4115C14.446 13.2385 14.4057 13.0662 14.3342 12.9026L14.4993 12.7829L14.1259 12.2681L13.9609 12.3878C13.8274 12.2687 13.6764 12.1772 13.515 12.1142L13.5471 11.9125L12.9194 11.8125L12.8873 12.0143C12.7143 12.024 12.542 12.0643 12.3785 12.1357L12.2588 11.9707L11.7439 12.344L11.8636 12.5091C11.7445 12.6426 11.6531 12.7936 11.5901 12.955L11.3883 12.9229L11.2884 13.5505L11.4901 13.5827C11.4998 13.7557 11.5401 13.9279 11.6116 14.0915L11.4465 14.2112Z" fill="#5DD8DD"/>
</svg>
