<svg width="25" height="25" viewBox="0 0 25 25" fill="none" xmlns="http://www.w3.org/2000/svg">
<path d="M6.67733 8.44158L5.16181 7.33102C5.04346 7.24429 5.01723 7.07422 5.10396 6.95586C5.19069 6.83751 5.36076 6.81128 5.47912 6.89801L6.99463 8.00858C7.11298 8.0953 7.13921 8.26537 7.05248 8.38373C6.96575 8.50208 6.79568 8.52831 6.67733 8.44158Z" fill="#D8D8D8"/>
<path d="M6.04256 9.30779L4.52705 8.19723C4.40869 8.1105 4.38247 7.94043 4.4692 7.82207C4.55593 7.70372 4.726 7.67749 4.84435 7.76422L6.35986 8.87479C6.47822 8.96152 6.50444 9.13159 6.41771 9.24994C6.33098 9.36829 6.16091 9.39452 6.04256 9.30779Z" fill="#D8D8D8"/>
<path d="M5.40779 10.1735L3.89228 9.06295C3.77393 8.97622 3.7477 8.80615 3.83443 8.6878C3.92116 8.56944 4.09123 8.54322 4.20959 8.62995L5.7251 9.74051C5.84345 9.82724 5.86968 9.99731 5.78295 10.1157C5.69622 10.234 5.52615 10.2602 5.40779 10.1735Z" fill="#D8D8D8"/>
<path d="M4.77303 11.0392L3.25752 9.92867C3.13916 9.84194 3.11294 9.67187 3.19967 9.55352C3.2864 9.43516 3.45647 9.40894 3.57482 9.49567L5.09033 10.6062C5.20869 10.693 5.23491 10.863 5.14818 10.9814C5.06145 11.0997 4.89138 11.126 4.77303 11.0392Z" fill="#D8D8D8"/>
<path d="M4.13826 11.9059L2.62275 10.7954C2.5044 10.7086 2.47817 10.5386 2.5649 10.4202C2.65163 10.3019 2.8217 10.2756 2.94006 10.3624L4.45557 11.4729C4.57392 11.5597 4.60015 11.7297 4.51342 11.8481C4.42669 11.9664 4.25662 11.9927 4.13826 11.9059Z" fill="#D8D8D8"/>
<path d="M9.21541 4.97771L7.6999 3.86715C7.58155 3.78042 7.55532 3.61035 7.64205 3.49199C7.72878 3.37364 7.89885 3.34742 8.0172 3.43414L9.53272 4.54471C9.65107 4.63144 9.6773 4.80151 9.59057 4.91986C9.50384 5.03822 9.33377 5.06444 9.21541 4.97771Z" fill="#D8D8D8"/>
<path d="M8.58065 5.84392L7.06513 4.73336C6.94678 4.64663 6.92056 4.47656 7.00728 4.35821C7.09401 4.23985 7.26408 4.21363 7.38244 4.30036L8.89795 5.41092C9.0163 5.49765 9.04253 5.66772 8.9558 5.78607C8.86907 5.90443 8.699 5.93065 8.58065 5.84392Z" fill="#D8D8D8"/>
<path d="M7.94588 6.70964L6.43037 5.59908C6.31201 5.51235 6.28579 5.34228 6.37252 5.22393C6.45925 5.10557 6.62932 5.07935 6.74767 5.16608L8.26318 6.27664C8.38154 6.36337 8.40776 6.53344 8.32103 6.65179C8.2343 6.77015 8.06423 6.79637 7.94588 6.70964Z" fill="#D8D8D8"/>
<path d="M7.31209 7.57586L5.79658 6.46529C5.67823 6.37856 5.652 6.20849 5.73873 6.09014C5.82546 5.97179 5.99553 5.94556 6.11388 6.03229L7.6294 7.14285C7.74775 7.22958 7.77397 7.39965 7.68724 7.51801C7.60052 7.63636 7.43045 7.66258 7.31209 7.57586Z" fill="#D8D8D8"/>
<path d="M15.6225 6.67803L16.7331 5.16252C16.8198 5.04417 16.9899 5.01794 17.1082 5.10467C17.2266 5.1914 17.2528 5.36147 17.1661 5.47982L16.0555 6.99533C15.9688 7.11369 15.7987 7.13991 15.6804 7.05318C15.562 6.96645 15.5358 6.79638 15.6225 6.67803Z" fill="#D8D8D8"/>
<path d="M14.7573 6.04326L15.8678 4.52775C15.9546 4.4094 16.1246 4.38317 16.243 4.4699C16.3614 4.55663 16.3876 4.7267 16.3009 4.84506L15.1903 6.36057C15.1036 6.47892 14.9335 6.50515 14.8151 6.41842C14.6968 6.33169 14.6706 6.16162 14.7573 6.04326Z" fill="#D8D8D8"/>
<path d="M13.8911 5.40899L15.0016 3.89348C15.0884 3.77512 15.2584 3.7489 15.3768 3.83563C15.4951 3.92236 15.5214 4.09243 15.4346 4.21078L14.3241 5.72629C14.2373 5.84464 14.0673 5.87087 13.9489 5.78414C13.8306 5.69741 13.8043 5.52734 13.8911 5.40899Z" fill="#D8D8D8"/>
<path d="M13.0249 4.77422L14.1354 3.25871C14.2222 3.14036 14.3922 3.11413 14.5106 3.20086C14.6289 3.28759 14.6552 3.45766 14.5684 3.57601L13.4579 5.09152C13.3711 5.20988 13.2011 5.2361 13.0827 5.14937C12.9644 5.06264 12.9381 4.89258 13.0249 4.77422Z" fill="#D8D8D8"/>
<path d="M12.1596 4.13897L13.2702 2.62346C13.3569 2.5051 13.527 2.47888 13.6453 2.56561C13.7637 2.65234 13.7899 2.82241 13.7032 2.94076L12.5926 4.45627C12.5059 4.57463 12.3358 4.60085 12.2175 4.51412C12.0991 4.42739 12.0729 4.25732 12.1596 4.13897Z" fill="#D8D8D8"/>
<path d="M19.0874 9.2166L20.1979 7.70109C20.2847 7.58274 20.4547 7.55651 20.5731 7.64324C20.6914 7.72997 20.7177 7.90004 20.6309 8.0184L19.5204 9.53391C19.4336 9.65226 19.2636 9.67849 19.1452 9.59176C19.0269 9.50503 19.0006 9.33496 19.0874 9.2166Z" fill="#D8D8D8"/>
<path d="M18.2212 8.58184L19.3317 7.06633C19.4184 6.94797 19.5885 6.92175 19.7069 7.00848C19.8252 7.09521 19.8514 7.26528 19.7647 7.38363L18.6542 8.89914C18.5674 9.0175 18.3974 9.04372 18.279 8.95699C18.1606 8.87026 18.1344 8.70019 18.2212 8.58184Z" fill="#D8D8D8"/>
<path d="M17.3549 7.94707L18.4655 6.43156C18.5522 6.31321 18.7223 6.28698 18.8407 6.37371C18.959 6.46044 18.9852 6.63051 18.8985 6.74887L17.7879 8.26438C17.7012 8.38273 17.5311 8.40896 17.4128 8.32223C17.2944 8.2355 17.2682 8.06543 17.3549 7.94707Z" fill="#D8D8D8"/>
<path d="M16.4887 7.3128L17.5993 5.79728C17.686 5.67893 17.8561 5.65271 17.9744 5.73944C18.0928 5.82616 18.119 5.99623 18.0323 6.11459L16.9217 7.6301C16.835 7.74845 16.6649 7.77468 16.5466 7.68795C16.4282 7.60122 16.402 7.43115 16.4887 7.3128Z" fill="#D8D8D8"/>
<path d="M17.3863 15.6241L18.9019 16.7346C19.0202 16.8214 19.0464 16.9914 18.9597 17.1098C18.873 17.2282 18.7029 17.2544 18.5846 17.1677L17.069 16.0571C16.9507 15.9704 16.9245 15.8003 17.0112 15.6819C17.0979 15.5636 17.268 15.5374 17.3863 15.6241Z" fill="#D8D8D8"/>
<path d="M18.0211 14.7579L19.5366 15.8684C19.655 15.9552 19.6812 16.1252 19.5945 16.2436C19.5077 16.3619 19.3377 16.3882 19.2193 16.3014L17.7038 15.1909C17.5855 15.1041 17.5592 14.9341 17.646 14.8157C17.7327 14.6974 17.9028 14.6711 18.0211 14.7579Z" fill="#D8D8D8"/>
<path d="M18.6559 13.8917L20.1714 15.0022C20.2897 15.089 20.316 15.259 20.2292 15.3774C20.1425 15.4957 19.9724 15.522 19.8541 15.4352L18.3386 14.3247C18.2202 14.2379 18.194 14.0679 18.2807 13.9495C18.3675 13.8312 18.5375 13.8049 18.6559 13.8917Z" fill="#D8D8D8"/>
<path d="M19.2906 13.0259L20.8062 14.1365C20.9245 14.2232 20.9507 14.3933 20.864 14.5117C20.7773 14.63 20.6072 14.6562 20.4888 14.5695L18.9733 13.4589C18.855 13.3722 18.8288 13.2021 18.9155 13.0838C19.0022 12.9654 19.1723 12.9392 19.2906 13.0259Z" fill="#D8D8D8"/>
<path d="M19.9254 12.1597L21.4409 13.2703C21.5593 13.357 21.5855 13.5271 21.4988 13.6454C21.412 13.7638 21.242 13.79 21.1236 13.7033L19.6081 12.5927C19.4897 12.506 19.4635 12.3359 19.5503 12.2176C19.637 12.0992 19.8071 12.073 19.9254 12.1597Z" fill="#D8D8D8"/>
<path d="M14.8483 19.0875L16.3638 20.198C16.4821 20.2848 16.5083 20.4548 16.4216 20.5732C16.3349 20.6915 16.1648 20.7178 16.0465 20.631L14.531 19.5205C14.4126 19.4337 14.3864 19.2637 14.4731 19.1453C14.5598 19.027 14.7299 19.0007 14.8483 19.0875Z" fill="#D8D8D8"/>
<path d="M15.483 18.2217L16.9985 19.3323C17.1169 19.419 17.1431 19.5891 17.0564 19.7075C16.9697 19.8258 16.7996 19.852 16.6812 19.7653L15.1657 18.6547C15.0474 18.568 15.0211 18.3979 15.1079 18.2796C15.1946 18.1612 15.3647 18.135 15.483 18.2217Z" fill="#D8D8D8"/>
<path d="M16.1168 17.356L17.6323 18.4666C17.7507 18.5533 17.7769 18.7234 17.6902 18.8417C17.6034 18.9601 17.4334 18.9863 17.315 18.8996L15.7995 17.789C15.6812 17.7023 15.6549 17.5322 15.7417 17.4139C15.8284 17.2955 15.9985 17.2693 16.1168 17.356Z" fill="#D8D8D8"/>
<path d="M16.7516 16.4898L18.2671 17.6004C18.3854 17.6871 18.4117 17.8572 18.3249 17.9755C18.2382 18.0939 18.0681 18.1201 17.9498 18.0334L16.4343 16.9228C16.3159 16.8361 16.2897 16.666 16.3764 16.5477C16.4632 16.4293 16.6332 16.4031 16.7516 16.4898Z" fill="#D8D8D8"/>
<path d="M8.4405 17.388L7.32994 18.9035C7.24321 19.0219 7.07314 19.0481 6.95478 18.9614C6.83643 18.8747 6.8102 18.7046 6.89693 18.5862L8.0075 17.0707C8.09423 16.9524 8.2643 16.9261 8.38265 17.0129C8.501 17.0996 8.52723 17.2697 8.4405 17.388Z" fill="#D8D8D8"/>
<path d="M9.30671 18.0218L8.19615 19.5373C8.10942 19.6557 7.93935 19.6819 7.82099 19.5952C7.70264 19.5084 7.67641 19.3384 7.76314 19.22L8.87371 17.7045C8.96044 17.5862 9.13051 17.5599 9.24886 17.6467C9.36722 17.7334 9.39344 17.9035 9.30671 18.0218Z" fill="#D8D8D8"/>
<path d="M10.1729 18.6561L9.06236 20.1716C8.97563 20.29 8.80556 20.3162 8.6872 20.2295C8.56885 20.1427 8.54263 19.9727 8.62936 19.8543L9.73992 18.3388C9.82665 18.2204 9.99672 18.1942 10.1151 18.2809C10.2334 18.3677 10.2597 18.5377 10.1729 18.6561Z" fill="#D8D8D8"/>
<path d="M11.0382 19.2918L9.92759 20.8073C9.84086 20.9257 9.67079 20.9519 9.55244 20.8652C9.43408 20.7785 9.40786 20.6084 9.49459 20.49L10.6052 18.9745C10.6919 18.8562 10.862 18.83 10.9803 18.9167C11.0987 19.0034 11.1249 19.1735 11.0382 19.2918Z" fill="#D8D8D8"/>
<path d="M11.9044 19.9261L10.7938 21.4416C10.7071 21.56 10.537 21.5862 10.4187 21.4995C10.3003 21.4127 10.2741 21.2427 10.3608 21.1243L11.4714 19.6088C11.5581 19.4905 11.7282 19.4642 11.8465 19.551C11.9649 19.6377 11.9911 19.8078 11.9044 19.9261Z" fill="#D8D8D8"/>
<path d="M4.97761 14.849L3.86705 16.3645C3.78032 16.4828 3.61025 16.5091 3.49189 16.4223C3.37354 16.3356 3.34731 16.1655 3.43404 16.0472L4.54461 14.5317C4.63134 14.4133 4.80141 14.3871 4.91976 14.4738C5.03811 14.5605 5.06434 14.7306 4.97761 14.849Z" fill="#D8D8D8"/>
<path d="M5.84284 15.4832L4.73228 16.9988C4.64555 17.1171 4.47548 17.1433 4.35713 17.0566C4.23877 16.9699 4.21255 16.7998 4.29928 16.6814L5.40984 15.1659C5.49657 15.0476 5.66664 15.0214 5.78499 15.1081C5.90335 15.1948 5.92957 15.3649 5.84284 15.4832Z" fill="#D8D8D8"/>
<path d="M6.70808 16.1185L5.59751 17.634C5.51078 17.7524 5.34072 17.7786 5.22236 17.6919C5.10401 17.6051 5.07778 17.4351 5.16451 17.3167L6.27508 15.8012C6.3618 15.6828 6.53187 15.6566 6.65023 15.7433C6.76858 15.8301 6.79481 16.0001 6.70808 16.1185Z" fill="#D8D8D8"/>
<path d="M7.57429 16.7528L6.46373 18.2683C6.377 18.3866 6.20693 18.4129 6.08857 18.3261C5.97022 18.2394 5.94399 18.0693 6.03072 17.951L7.14129 16.4355C7.22802 16.3171 7.39809 16.2909 7.51644 16.3776C7.63479 16.4643 7.66102 16.6344 7.57429 16.7528Z" fill="#D8D8D8"/>
<path d="M3.98023 12.1224L9.6917 4.32832C10.2163 3.61243 11.3595 3.55392 11.9426 3.98123L19.7367 9.69269C20.4526 10.2173 20.6084 11.2277 20.0838 11.9436L14.3723 19.7377C13.8477 20.4536 12.7045 20.5121 12.1214 20.0848L4.32733 14.3733C3.61143 13.8487 3.45562 12.8383 3.98023 12.1224Z" fill="#333C45"/>
<path d="M5.22062 12.6988L10.6148 5.33778C10.7904 5.09819 11.1717 5.08035 11.3651 5.22208L18.7262 10.6162C18.9658 10.7918 19.0174 11.127 18.8419 11.3666L13.4477 18.7276C13.2721 18.9672 12.8908 18.985 12.6974 18.8433L5.33632 13.4491C5.09673 13.2736 5.04505 12.9384 5.22062 12.6988Z" fill="#F2F2F2"/>
<path d="M6.93893 12.6263L11.0639 6.99723C11.1506 6.87888 11.3409 6.86746 11.439 6.93938L17.0681 11.0643C17.1864 11.1511 17.2127 11.3211 17.1259 11.4395L13.001 17.0685C12.9142 17.1869 12.724 17.1983 12.6258 17.1264L6.99678 13.0014C6.87842 12.9147 6.8522 12.7446 6.93893 12.6263Z" fill="#5358FD"/>
<path d="M8.59788 12.1783C9.17522 12.6014 8.54061 13.4674 7.96328 13.0444C7.38594 12.6213 8.02055 11.7553 8.59788 12.1783Z" fill="#F2F2F2"/>
<path d="M16.1008 11.0216C16.6782 11.4447 16.0435 12.3107 15.4662 11.8876C14.8889 11.4645 15.5235 10.5985 16.1008 11.0216Z" fill="#F2F2F2"/>
<path d="M7.75977 9.23438L8.07707 8.80137L9.15958 9.59463L8.84227 10.0276L7.75977 9.23438Z" fill="#333C45"/>
<path d="M7.12402 10.1016L7.44133 9.66856L8.52384 10.4618L8.20653 10.8948L7.12402 10.1016Z" fill="#333C45"/>
<path d="M6.49023 10.9663L6.80754 10.5333L7.89005 11.3266L7.57274 11.7596L6.49023 10.9663Z" fill="#333C45"/>
<path d="M9.0293 7.50293L9.3466 7.06993L10.4291 7.86319L10.1118 8.29619L9.0293 7.50293Z" fill="#333C45"/>
<path d="M8.39453 8.36865L8.71184 7.93565L9.79434 8.72891L9.47704 9.16191L8.39453 8.36865Z" fill="#333C45"/>
<path d="M14.9033 14.4707L15.2206 14.0377L16.3031 14.831L15.9858 15.264L14.9033 14.4707Z" fill="#333C45"/>
<path d="M14.2695 15.3364L14.5868 14.9034L15.6693 15.6967L15.352 16.1297L14.2695 15.3364Z" fill="#333C45"/>
<path d="M13.6348 16.2031L13.9521 15.7701L15.0346 16.5634L14.7173 16.9964L13.6348 16.2031Z" fill="#333C45"/>
<path d="M16.1738 12.7383L16.4911 12.3053L17.5736 13.0985L17.2563 13.5315L16.1738 12.7383Z" fill="#333C45"/>
<path d="M15.5391 13.605L15.8564 13.172L16.9389 13.9652L16.6216 14.3982L15.5391 13.605Z" fill="#333C45"/>
<path d="M11.722 12.9102L11.2155 12.0999L12.1408 12.3387L11.722 12.9102ZM10.6996 11.4113C10.5927 11.3817 10.4815 11.4244 10.4159 11.5139C10.3503 11.6034 10.343 11.7223 10.4035 11.8154L11.9339 14.2679C12.0147 14.3937 12.177 14.4327 12.3056 14.354C12.4314 14.2731 12.4704 14.1109 12.3917 13.9822L12.0307 13.385C12.0731 13.3272 11.8996 13.5639 12.6823 12.4959C12.7098 12.4583 12.5986 12.4345 13.3653 12.6415C13.5097 12.6807 13.6547 12.5917 13.6939 12.4474C13.7281 12.3039 13.647 12.1602 13.5027 12.121L10.6996 11.4113Z" fill="#FCFCFC"/>
<path d="M11.7429 10.1577L13.9079 11.7442C14.0262 11.8309 14.1963 11.8047 14.283 11.6863C14.3698 11.568 14.3435 11.3979 14.2252 11.3112L12.0602 9.72467C11.9418 9.63794 11.7717 9.66417 11.685 9.78252C11.5983 9.90088 11.6245 10.0709 11.7429 10.1577Z" fill="#FCFCFC"/>
</svg>
